<?xml version="1.0" standalone="no"?>
<!DOCTYPE svg PUBLIC "-//W3C//DTD SVG 1.1//EN" "http://www.w3.org/Graphics/SVG/1.1/DTD/svg11.dtd" >
<svg xmlns="http://www.w3.org/2000/svg">
<metadata>Generated by IcoMoon</metadata>
<defs>
<font id="icomoon" horiz-adv-x="1024">
<font-face units-per-em="1024" ascent="960" descent="-64" />
<missing-glyph horiz-adv-x="1024" />
<glyph unicode="&#x20;" horiz-adv-x="512" d="" />
<glyph unicode="&#xe900;" glyph-name="arrow-right-from-bracket-regular" d="M1010 414c18.8 18.8 18.8 49.2 0 67.8l-256 256.2c-18.8 18.8-49.2 18.8-67.8 0s-18.8-49.2 0-67.8l174-174-492.2-0.2c-26.6 0-48-21.4-48-48s21.4-48 48-48h492.2l-174-174c-18.8-18.8-18.8-49.2 0-67.8s49.2-18.8 67.8 0l256 255.8zM336 800c26.6 0 48 21.4 48 48s-21.4 48-48 48h-160c-97.2 0-176-78.8-176-176v-544c0-97.2 78.8-176 176-176h160c26.6 0 48 21.4 48 48s-21.4 48-48 48h-160c-44.2 0-80 35.8-80 80v544c0 44.2 35.8 80 80 80h160z" />
<glyph unicode="&#xe901;" glyph-name="gear-solid" d="M991.8 626.8c6.4-17.4 1-36.8-12.8-49.2l-86.6-78.8c2.2-16.6 3.4-33.6 3.4-50.8s-1.2-34.2-3.4-50.8l86.6-78.8c13.8-12.4 19.2-31.8 12.8-49.2-8.8-23.8-19.4-46.6-31.6-68.6l-9.4-16.2c-13.2-22-28-42.8-44.2-62.4-11.8-14.4-31.4-19.2-49-13.6l-111.4 35.4c-26.8-20.6-56.4-37.8-88-50.8l-25-114.2c-4-18.2-18-32.6-36.4-35.6-27.6-4.6-56-7-85-7s-57.4 2.4-85 7c-18.4 3-32.4 17.4-36.4 35.6l-25 114.2c-31.6 13-61.2 30.2-88 50.8l-111.2-35.6c-17.6-5.6-37.2-0.6-49 13.6-16.2 19.6-31 40.4-44.2 62.4l-9.4 16.2c-12.2 22-22.8 44.8-31.6 68.6-6.4 17.4-1 36.8 12.8 49.2l86.6 78.8c-2.2 16.8-3.4 33.8-3.4 51s1.2 34.2 3.4 50.8l-86.6 78.8c-13.8 12.4-19.2 31.8-12.8 49.2 8.8 23.8 19.4 46.6 31.6 68.6l9.4 16.2c13.2 22 28 42.8 44.2 62.4 11.8 14.4 31.4 19.2 49 13.6l111.4-35.4c26.8 20.6 56.4 37.8 88 50.8l25 114.2c4 18.2 18 32.6 36.4 35.6 27.6 4.8 56 7.2 85 7.2s57.4-2.4 85-7c18.4-3 32.4-17.4 36.4-35.6l25-114.2c31.6-13 61.2-30.2 88-50.8l111.4 35.4c17.6 5.6 37.2 0.6 49-13.6 16.2-19.6 31-40.4 44.2-62.4l9.4-16.2c12.2-22 22.8-44.8 31.6-68.6zM512 288c88.366 0 160 71.634 160 160s-71.634 160-160 160v0c-88.366 0-160-71.634-160-160s71.634-160 160-160v0z" />
<glyph unicode="&#xe902;" glyph-name="gear-regular" d="M512 960c34 0 67.2-3.4 99.6-9.6 15.8-3 43.6-12.2 58.8-40.2 4-7.4 7.2-15.2 9.2-23.6l18.6-77c2.8-11.6 22.4-23 33.8-19.6l76 22.4c8 2.4 16.2 3.6 24.4 3.8 32.2 1 54-18.8 64.6-30.8 44.2-50.2 78.2-109.2 99.8-172.6 5.2-15.2 11.2-43.6-5.4-70.8-4.4-7.2-9.8-14-16-20l-57.4-54.6c-8.4-8-8.4-31 0-39l57.4-54.6c6.2-6 11.6-12.8 16-20 16.4-27.2 10.4-55.6 5.4-70.8-21.6-63.4-55.6-122.2-99.8-172.6-10.6-12-32.6-31.8-64.6-30.8-8.2 0.2-16.4 1.6-24.4 3.8l-76 22.6c-11.4 3.4-31-8-33.8-19.6l-18.6-77c-2-8.4-5.2-16.4-9.2-23.6-15.4-28-43.2-37-58.8-40.2-32.4-6.2-65.6-9.6-99.6-9.6s-67.2 3.4-99.6 9.6c-15.8 3-43.6 12.2-58.8 40.2-4 7.4-7.2 15.2-9.2 23.6l-18.6 77c-2.8 11.6-22.4 23-33.8 19.6l-76-22.4c-8-2.4-16.2-3.6-24.4-3.8-32.2-1-54 18.8-64.6 30.8-44 50.2-78.2 109.2-99.8 172.6-5.2 15.2-11.2 43.6 5.4 70.8 4.4 7.2 9.8 14 16 20l57.4 54.6c8.4 8 8.4 31 0 39l-57.6 54.6c-6.2 6-11.6 12.8-16 20-16.4 27.2-10.4 55.6-5.2 70.6 21.6 63.4 55.6 122.2 99.8 172.6 10.6 12 32.6 31.8 64.6 30.8 8.2-0.2 16.4-1.6 24.4-3.8l76-22.4c11.4-3.4 31 8 33.8 19.6l18.6 77c2 8.4 5.2 16.4 9.2 23.6 15.4 28 43.2 37 58.8 40.2 32.4 6.2 65.6 9.6 99.6 9.6zM436.2 857.2l-17-70.2c-15.6-64.6-90.6-107.8-154.4-89.2l-69 20.4c-33-38.6-59-83.4-76-131.4l52.4-49.8c48-45.6 48-132.4 0-178l-52.4-49.8c17-48 43-92.8 76-131.4l69.2 20.4c63.6 18.8 138.8-24.6 154.4-89.2l17-70.2c49.2-9 102.6-9 151.8 0l17 70.2c15.6 64.6 90.6 107.8 154.4 89.2l69.2-20.4c33 38.6 59 83.4 76 131.4l-52.4 49.8c-48 45.6-48 132.4 0 178l52.4 49.8c-17 48-43 92.8-76 131.4l-69.2-20.4c-63.6-18.8-138.8 24.6-154.4 89.2l-17 70.2c-49.2 9-102.6 9-151.8 0zM416 448c0-53.019 42.981-96 96-96s96 42.981 96 96v0c0 53.019-42.981 96-96 96s-96-42.981-96-96v0zM512 256c-106.039 0-192 85.961-192 192s85.961 192 192 192v0c106.039 0 192-85.961 192-192s-85.961-192-192-192v0z" />
<glyph unicode="&#xe903;" glyph-name="message-quote-solid" d="M0 832c0 70.6 57.4 128 128 128h768c70.6 0 128-57.4 128-128v-576c0-70.6-57.4-128-128-128h-277.4l-247.4-185.6c-9.6-7.2-22.6-8.4-33.6-3s-17.6 16.4-17.6 28.6v160h-192c-70.6 0-128 57.4-128 128v576zM320 736c-35.4 0-64-28.6-64-64v-96c0-35.4 28.6-64 64-64h64v-14.6c0-23.4-17-43.4-40.2-47.4l-15.8-2.6c-26.2-4.4-43.8-29-39.4-55.2s29-43.8 55.2-39.4l15.8 2.6c69.4 11.6 120.4 71.6 120.4 142v174.6c0 35.4-28.6 64-64 64h-96zM768 576v96c0 35.4-28.6 64-64 64h-96c-35.4 0-64-28.6-64-64v-96c0-35.4 28.6-64 64-64h64v-14.6c0-23.4-17-43.4-40.2-47.4l-15.8-2.6c-26.2-4.4-43.8-29-39.4-55.2s29-43.8 55.2-39.4l15.8 2.6c69.4 11.6 120.4 71.6 120.4 142v78.6z" />
<glyph unicode="&#xe904;" glyph-name="message-quote-regular" d="M416 128c0 53-43 96-96 96h-192c-17.6 0-32 14.4-32 32v576c0 17.6 14.4 32 32 32h768c17.6 0 32-14.4 32-32v-576c0-17.6-14.4-32-32-32h-277.4c-20.8 0-41-6.8-57.6-19.2l-145-108.8v32zM415.6-24.4l0.4 0.4 202.6 152h277.4c70.6 0 128 57.4 128 128v576c0 70.6-57.4 128-128 128h-768c-70.6 0-128-57.4-128-128v-576c0-70.6 57.4-128 128-128h192v-160c0-12.2 6.8-23.2 17.6-28.6s23.8-4.2 33.6 3l44.4 33.2zM320 736c-35.4 0-64-28.6-64-64v-96c0-35.4 28.6-64 64-64h64v-14.6c0-23.4-17-43.4-40.2-47.4l-15.8-2.6c-26.2-4.4-43.8-29-39.4-55.2s29-43.8 55.2-39.4l15.8 2.6c69.4 11.6 120.4 71.6 120.4 142v174.6c0 35.4-28.6 64-64 64h-96zM768 576v96c0 35.4-28.6 64-64 64h-96c-35.4 0-64-28.6-64-64v-96c0-35.4 28.6-64 64-64h64v-14.6c0-23.4-17-43.4-40.2-47.4l-15.8-2.6c-26.2-4.4-43.8-29-39.4-55.2s29-43.8 55.2-39.4l15.8 2.6c69.4 11.6 120.4 71.6 120.4 142v78.6z" />
<glyph unicode="&#xe905;" glyph-name="layer-group-solid" horiz-adv-x="1152" d="M529 949.6c29.8 13.8 64.2 13.8 94 0l437.2-202c17-7.8 27.8-24.8 27.8-43.6s-10.8-35.8-27.8-43.6l-437.2-202c-29.8-13.8-64.2-13.8-94 0l-437.2 202c-17 8-27.8 25-27.8 43.6s10.8 35.8 27.8 43.6l437.2 202zM953.8 540.8l106.4-49.2c17-7.8 27.8-24.8 27.8-43.6s-10.8-35.8-27.8-43.6l-437.2-202c-29.8-13.8-64.2-13.8-94 0l-437.2 202c-17 8-27.8 25-27.8 43.6s10.8 35.8 27.8 43.6l106.4 49.2 304-140.4c46.8-21.6 100.8-21.6 147.6 0l304 140.4zM649.8 144.4l304 140.4 106.4-49.2c17-7.8 27.8-24.8 27.8-43.6s-10.8-35.8-27.8-43.6l-437.2-202c-29.8-13.8-64.2-13.8-94 0l-437.2 202c-17 8-27.8 25-27.8 43.6s10.8 35.8 27.8 43.6l106.4 49.2 304-140.4c46.8-21.6 100.8-21.6 147.6 0z" />
<glyph unicode="&#xe906;" glyph-name="layer-group-regular" horiz-adv-x="1152" d="M576 960c-17 0-34-3.4-49.6-10.2l-418.6-179.4c-26.6-11.4-43.8-37.4-43.8-66.4s17.2-55 43.8-66.4l418.6-179.4c15.6-6.8 32.6-10.2 49.6-10.2s34 3.4 49.6 10.2l418.6 179.4c26.6 11.4 43.8 37.6 43.8 66.4s-17.2 55-43.8 66.4l-418.6 179.4c-15.6 6.8-32.6 10.2-49.6 10.2zM564.2 861.6c3.8 1.6 7.8 2.4 11.8 2.4s8-0.8 11.8-2.4l367.6-157.6-367.6-157.6c-3.8-1.6-7.8-2.4-11.8-2.4s-8 0.8-11.8 2.4l-367.6 157.6 367.6 157.6zM107.8 514.4c-26.6-11.4-43.8-37.4-43.8-66.4s17.2-55 43.8-66.4l418.6-179.4c15.6-6.8 32.6-10.2 49.6-10.2s34 3.4 49.6 10.2l418.6 179.4c26.6 11.4 43.8 37.6 43.8 66.4s-17.2 55-43.8 66.4l-62.4 26.8-121.8-52.2 95.4-41-367.6-157.6c-3.8-1.6-7.8-2.4-11.8-2.4s-8 0.8-11.8 2.4l-367.6 157.6 95.4 41-121.8 52.2-62.4-26.8zM107.8 258.4c-26.6-11.4-43.8-37.4-43.8-66.4s17.2-55 43.8-66.4l418.6-179.4c15.6-6.8 32.6-10.2 49.6-10.2s34 3.4 49.6 10.2l418.6 179.4c26.6 11.4 43.8 37.6 43.8 66.4s-17.2 55-43.8 66.4l-62.4 26.8-121.8-52.2 95.4-41-367.6-157.6c-3.8-1.6-7.8-2.4-11.8-2.4s-8 0.8-11.8 2.4l-367.6 157.6 95.4 41-121.8 52.2-62.4-26.8z" />
<glyph unicode="&#xe907;" glyph-name="badge-percent-solid" d="M512 960c73.6 0 137.6-41.4 169.8-102.2 65.8 20.2 140.2 4.2 192.2-47.8s68-126.6 47.8-192.2c60.8-32.2 102.2-96.2 102.2-169.8s-41.4-137.6-102.2-169.8c20.2-65.8 4.2-140.2-47.8-192.2s-126.6-68-192.2-47.8c-32.2-60.8-96.2-102.2-169.8-102.2s-137.6 41.4-169.8 102.2c-65.8-20.2-140.2-4.2-192.2 47.8s-68 126.6-47.8 192.2c-60.8 32.2-102.2 96.2-102.2 169.8s41.4 137.6 102.2 169.8c-20.2 65.8-4.2 140.2 47.8 192.2s126.6 68 192.2 47.8c32.2 60.8 96.2 102.2 169.8 102.2zM384 512c35.346 0 64 28.654 64 64s-28.654 64-64 64v0c-35.346 0-64-28.654-64-64s28.654-64 64-64v0zM704 320c0 35.346-28.654 64-64 64s-64-28.654-64-64v0c0-35.346 28.654-64 64-64s64 28.654 64 64v0zM674 542c18.8 18.8 18.8 49.2 0 67.8s-49.2 18.8-67.8 0l-256.2-255.8c-18.8-18.8-18.8-49.2 0-67.8s49.2-18.8 67.8 0l256.2 255.8z" />
<glyph unicode="&#xe908;" glyph-name="badge-percent-regular" d="M400.6 797c21.2 40 63.2 67 111.4 67s90.2-27 111.4-67c10.8-20.4 34.6-30.2 56.6-23.4 43.2 13.2 92.2 2.8 126.2-31.4s44.6-83 31.4-126.2c-6.8-22 3-45.8 23.4-56.4 40-21.2 67-63.2 67-111.4s-27-90.2-67-111.4c-20.4-10.8-30.2-34.4-23.4-56.4 13.2-43.2 2.8-92.2-31.4-126.2s-83-44.6-126.2-31.4c-22 6.8-45.8-3-56.4-23.4-21.2-40-63.2-67-111.4-67s-90.2 27-111.4 67c-10.8 20.4-34.4 30.2-56.4 23.4-43.2-13.2-92.2-2.8-126.2 31.4s-45 82.6-31.8 125.8c6.8 22-3 45.8-23.4 56.4-40 21.4-67 63.4-67 111.6s27 90.2 67 111.4c20.4 10.8 30.2 34.6 23.4 56.6-13.2 43.2-2.8 92.2 31.4 126.2s83 44.6 126.2 31.4c22-6.8 45.8 3 56.4 23.4zM512 960c-71.8 0-135.6-34-176.2-86.8-66 8.6-135.2-12.4-186-63.2s-71.8-120-63.2-186c-52.6-40.4-86.6-104.2-86.6-176s34-135.6 86.8-176.2c-8.6-66 12.4-135.2 63.2-186s120-71.8 186-63.2c40.4-52.6 104.2-86.6 176-86.6s135.6 34 176.2 86.8c66-8.6 135.2 12.4 186 63.2s71.8 120 63.2 186c52.6 40.4 86.6 104.2 86.6 176s-34 135.6-86.8 176.2c8.6 66-12.4 135.2-63.2 186s-120 71.8-186 63.2c-40.4 52.6-104.2 86.6-176 86.6zM384 512c35.346 0 64 28.654 64 64s-28.654 64-64 64v0c-35.346 0-64-28.654-64-64s28.654-64 64-64v0zM704 320c0 35.346-28.654 64-64 64s-64-28.654-64-64v0c0-35.346 28.654-64 64-64s64 28.654 64 64v0zM674 542c18.8 18.8 18.8 49.2 0 67.8s-49.2 18.8-67.8 0l-256.2-255.8c-18.8-18.8-18.8-49.2 0-67.8s49.2-18.8 67.8 0l256.2 255.8z" />
<glyph unicode="&#xe909;" glyph-name="square-list-solid" horiz-adv-x="896" d="M0 768c0 70.6 57.4 128 128 128h640c70.6 0 128-57.4 128-128v-640c0-70.6-57.4-128-128-128h-640c-70.6 0-128 57.4-128 128v640zM192 384c35.346 0 64 28.654 64 64s-28.654 64-64 64v0c-35.346 0-64-28.654-64-64s28.654-64 64-64v0zM256 640c0 35.346-28.654 64-64 64s-64-28.654-64-64v0c0-35.346 28.654-64 64-64s64 28.654 64 64v0zM192 192c35.346 0 64 28.654 64 64s-28.654 64-64 64v0c-35.346 0-64-28.654-64-64s28.654-64 64-64v0zM384 688c-26.6 0-48-21.4-48-48s21.4-48 48-48h320c26.6 0 48 21.4 48 48s-21.4 48-48 48h-320zM384 496c-26.6 0-48-21.4-48-48s21.4-48 48-48h320c26.6 0 48 21.4 48 48s-21.4 48-48 48h-320zM384 304c-26.6 0-48-21.4-48-48s21.4-48 48-48h320c26.6 0 48 21.4 48 48s-21.4 48-48 48h-320z" />
<glyph unicode="&#xe90a;" glyph-name="bag-shopping-regular" horiz-adv-x="896" d="M320 736v-96h256v96c0 70.6-57.4 128-128 128s-128-57.4-128-128zM224 544h-128v-416c0-53 43-96 96-96h512c53 0 96 43 96 96v416h-128v-112c0-26.6-21.4-48-48-48s-48 21.4-48 48v112h-256v-112c0-26.6-21.4-48-48-48s-48 21.4-48 48v112zM224 640v96c0 123.8 100.2 224 224 224s224-100.2 224-224v-96h128c53 0 96-43 96-96v-416c0-106-86-192-192-192h-512c-106 0-192 86-192 192v416c0 53 43 96 96 96h128z" />
<glyph unicode="&#xe90b;" glyph-name="objects-column-solid" horiz-adv-x="896" d="M96 896c-53 0-96-43-96-96v-320c0-53 43-96 96-96h192c53 0 96 43 96 96v320c0 53-43 96-96 96h-192zM608 512c-53 0-96-43-96-96v-320c0-53 43-96 96-96h192c53 0 96 43 96 96v320c0 53-43 96-96 96h-192zM0 160v-64c0-53 43-96 96-96h192c53 0 96 43 96 96v64c0 53-43 96-96 96h-192c-53 0-96-43-96-96zM608 896c-53 0-96-43-96-96v-64c0-53 43-96 96-96h192c53 0 96 43 96 96v64c0 53-43 96-96 96h-192z" />
<glyph unicode="&#xe90c;" glyph-name="objects-column-regular" horiz-adv-x="896" d="M96 800v-320h192v320h-192zM0 800c0 53 43 96 96 96h192c53 0 96-43 96-96v-320c0-53-43-96-96-96h-192c-53 0-96 43-96 96v320zM608 416v-320h192v320h-192zM512 416c0 53 43 96 96 96h192c53 0 96-43 96-96v-320c0-53-43-96-96-96h-192c-53 0-96 43-96 96v320zM288 224h-192v-128h192v128zM96 320h192c53 0 96-43 96-96v-128c0-53-43-96-96-96h-192c-53 0-96 43-96 96v128c0 53 43 96 96 96zM608 800v-128h192v128h-192zM512 800c0 53 43 96 96 96h192c53 0 96-43 96-96v-128c0-53-43-96-96-96h-192c-53 0-96 43-96 96v128z" />
<glyph unicode="&#xe90d;" glyph-name="eye-slash-regular" horiz-adv-x="1280" d="M77.6 949.8c-20.8 16.4-51 12.6-67.4-8.2s-12.6-51 8.2-67.4l1184-928c20.8-16.4 51-12.6 67.4 8.2s12.6 51-8.2 67.4l-210.4 164.8c79.2 81.2 132.8 172.2 159.8 236.8 6.6 15.8 6.6 33.4 0 49.2-29.8 71.4-92.4 175.4-186 262.2-94 87.6-223.4 161.2-385 161.2-136.4 0-250-52.6-338.6-121.6l-223.8 175.4zM379.6 713.2c72.4 51.4 159.4 86.8 260.4 86.8 130.4 0 237.6-59.2 319.8-135.4 77-71.6 130.2-156.6 157.4-216.6-25.2-56-73.2-133.6-141.8-201.8l-107.6 84.4c18.2 35.2 28.4 75 28.4 117.4 0 141.4-114.6 256-256 256-64.4 0-123.4-23.8-168.4-63l-92.2 72.2zM789.8 391.6l-163 127.8c8.4 17 13.2 36.4 13.2 56.6 0 11-1.4 21.8-4 32 1.4 0 2.6 0 4 0 88.4 0 160-71.6 160-160 0-19.8-3.6-38.8-10.2-56.4zM808.6 131c-51-21.8-107.2-35-168.6-35-130.4 0-237.6 59.2-319.8 135.4-77 71.6-130.2 156.6-157.4 216.6 16.6 36.8 43 83 78.8 129.6l-75.4 59.4c-45.6-59.4-78.2-118.6-97.2-164.4-6.6-15.8-6.6-33.4 0-49.2 29.8-71.4 92.4-175.4 186-262.2 94-87.6 223.4-161.2 385-161.2 95.6 0 179.8 25.8 252.4 65l-83.8 66zM384 448c0-141.4 114.6-256 256-256 26.6 0 52.2 4 76.4 11.6l-112.4 88.4c-47 10.8-86.2 42.4-107.4 84.6l-112.2 88.4c-0.4-5.6-0.6-11.2-0.6-17z" />
<glyph unicode="&#xe90e;" glyph-name="eye-regular" horiz-adv-x="1152" d="M576 800c-130.4 0-237.6-59.2-319.8-135.4-77-71.6-130.2-156.6-157.4-216.6 27.2-60 80.4-145 157.2-216.6 82.4-76.2 189.6-135.4 320-135.4s237.6 59.2 319.8 135.4c77 71.6 130.2 156.6 157.4 216.6-27.2 60-80.4 145-157.2 216.6-82.4 76.2-189.6 135.4-320 135.4zM190.8 734.8c94.2 87.6 223.6 161.2 385.2 161.2s291-73.6 385.2-161.2c93.6-87 156.2-190.8 186-262.2 6.6-15.8 6.6-33.4 0-49.2-29.8-71.4-92.4-175.4-186-262.2-94.2-87.6-223.6-161.2-385.2-161.2s-291 73.6-385.2 161.2c-93.6 86.8-156.2 190.8-185.8 262.2-6.6 15.8-6.6 33.4 0 49.2 29.6 71.4 92.2 175.4 185.8 262.2zM576 288c88.4 0 160 71.6 160 160s-71.6 160-160 160c-1.4 0-2.6 0-4 0 2.6-10.2 4-21 4-32 0-70.6-57.4-128-128-128-11 0-21.8 1.4-32 4 0-1.4 0-2.6 0-4 0-88.4 71.6-160 160-160zM576 704c141.385 0 256-114.615 256-256s-114.615-256-256-256v0c-141.385 0-256 114.615-256 256s114.615 256 256 256v0z" />
<glyph unicode="&#xe90f;" glyph-name="camera-solid" d="M298.2 830.4l-20.8-62.4h-149.4c-70.6 0-128-57.4-128-128v-512c0-70.6 57.4-128 128-128h768c70.6 0 128 57.4 128 128v512c0 70.6-57.4 128-128 128h-149.4l-20.8 62.4c-13 39.2-49.6 65.6-91 65.6h-245.6c-41.4 0-78-26.4-91-65.6zM512 576c106.039 0 192-85.961 192-192s-85.961-192-192-192v0c-106.039 0-192 85.961-192 192s85.961 192 192 192v0z" />
<glyph unicode="&#xe910;" glyph-name="mobile-regular" horiz-adv-x="768" d="M160 864c-17.6 0-32-14.4-32-32v-768c0-17.6 14.4-32 32-32h448c17.6 0 32 14.4 32 32v768c0 17.6-14.4 32-32 32h-448zM32 832c0 70.6 57.4 128 128 128h448c70.6 0 128-57.4 128-128v-768c0-70.6-57.4-128-128-128h-448c-70.6 0-128 57.4-128 128v768zM320 160h128c17.6 0 32-14.4 32-32s-14.4-32-32-32h-128c-17.6 0-32 14.4-32 32s14.4 32 32 32z" />
<glyph unicode="&#xe911;" glyph-name="tablet-regular" horiz-adv-x="896" d="M128 864c-17.6 0-32-14.4-32-32v-768c0-17.6 14.4-32 32-32h640c17.6 0 32 14.4 32 32v768c0 17.6-14.4 32-32 32h-640zM0 832c0 70.6 57.4 128 128 128h640c70.6 0 128-57.4 128-128v-768c0-70.6-57.4-128-128-128h-640c-70.6 0-128 57.4-128 128v768zM384 160h128c17.6 0 32-14.4 32-32s-14.4-32-32-32h-128c-17.6 0-32 14.4-32 32s14.4 32 32 32z" />
<glyph unicode="&#xe912;" glyph-name="desktop-regular" horiz-adv-x="1152" d="M1024 864h-896c-17.6 0-32-14.4-32-32v-384h960v384c0 17.6-14.4 32-32 32zM1152 448v-192c0-70.6-57.4-128-128-128h-295.4l16-96h103.4c26.6 0 48-21.4 48-48s-21.4-48-48-48h-544c-26.6 0-48 21.4-48 48s21.4 48 48 48h103.4l16 96h-295.4c-70.6 0-128 57.4-128 128v576c0 70.6 57.4 128 128 128h896c70.6 0 128-57.4 128-128v-384zM96 352v-96c0-17.6 14.4-32 32-32h351c0.6 0 1.2 0 1.6 0h190.4c0.6 0 1.2 0 1.6 0h351.4c17.6 0 32 14.4 32 32v96h-960zM504.6 32h142.6l-16 96h-110.6l-16-96z" />
<glyph unicode="&#xe913;" glyph-name="hand-holding-box-solid" horiz-adv-x="1152" d="M448 716.6c0-7 5.6-12.6 12.6-12.6 2.2 0 4.4 0.6 6.2 1.6l93.2 53.2c9.8 5.6 22 5.6 31.8 0l93.2-53.2c2-1 4-1.6 6.2-1.6 7 0 12.6 5.6 12.6 12.6v243.4h160c53 0 96-43 96-96v-320c0-53-43-96-96-96h-575.8c-53 0-96 43-96 96v320c0 53 43 96 96 96h160v-243.4zM1136.4 287.4c26.2-35.6 18.6-85.6-17-111.8l-253.2-186.6c-46.8-34.4-103.2-53-161.4-53h-640.8c-35.4 0-64 28.6-64 64v128c0 35.4 28.6 64 64 64h73.6l89.8 72c45.4 36.4 101.8 56 160 56h316.6c35.4 0 64-28.6 64-64s-28.6-64-64-64h-160c-17.6 0-32-14.4-32-32s14.4-32 32-32h241.2l239.4 176.4c35.6 26.2 85.6 18.6 111.8-17zM387.2 192v0h-1.8c0.6 0 1.2 0 1.8 0z" />
<glyph unicode="&#xe914;" glyph-name="hand-holding-box-regular" horiz-adv-x="1152" d="M864 864h-160v-147.4c0-7-5.6-12.6-12.6-12.6-2.2 0-4.4 0.6-6.2 1.6l-93.2 53.2c-9.8 5.6-22 5.6-31.8 0l-93.2-53.2c-2-1-4-1.6-6.2-1.6-7 0-12.6 5.6-12.6 12.6v147.4h-160.2v-320h576v320zM864 960c53 0 96-43 96-96v-320c0-53-43-96-96-96h-576c-53 0-96 43-96 96v320c0 53 43 96 96 96h576zM374.8 256c-15.8 0-31.2-4.6-44.4-13.4l-159.8-106.6c-7.8-5.2-17.2-8-26.6-8h-96c-26.6 0-48 21.4-48 48s21.4 48 48 48h81.4l147.6 98.4c29 19.4 63 29.6 97.8 29.6h313.2c70.6 0 128-57.4 128-128 0-1.4 0-2.6 0-4l129.8 80c21.4 13.2 45.8 20 71 20h14.8c66.6 0 120.6-54 120.6-120.6 0-40.8-20.8-79-55-101.2l-191.2-123.8c-38.8-25.2-84.2-38.6-130.4-38.6h-727.6c-26.6 0-48 21.4-48 48s21.4 48 48 48h727.4c27.8 0 55 8 78.2 23.2l191.2 123.8c7 4.6 11.2 12.2 11.2 20.6 0 13.6-11 24.6-24.6 24.6h-14.8c-7.2 0-14.4-2-20.6-5.8l-187-115c-7.6-4.6-16.2-7.2-25.2-7.2h-271.8c-26.6 0-48 21.4-48 48s21.4 48 48 48h176c17.6 0 32 14.4 32 32s-14.4 32-32 32h-313.2z" />
<glyph unicode="&#xe915;" glyph-name="route-solid" d="M1024 768c0-100.4-118.2-250.2-169.2-310-7.6-8.8-18.8-12.2-29-10h-185.8c-35.4 0-64-28.6-64-64s28.6-64 64-64h192c106 0 192-86 192-192s-86-192-192-192h-552.8c17.4 19.8 38.6 45.2 60 73.6 12.6 16.8 25.6 35.2 38 54.4h454.8c35.4 0 64 28.6 64 64s-28.6 64-64 64h-192c-106 0-192 86-192 192s86 192 192 192h79.6c-42 63-79.6 135.4-79.6 192 0 106 86 192 192 192s192-86 192-192zM234.2-18.2c-7.6-8.6-14.4-16.2-20.2-22.6l-3.6-4-0.4 0.4c-12-9.2-29.2-8-40 3.6-50.4 54.8-170 195.8-170 296.8 0 106 86 192 192 192s192-86 192-192c0-60-42.2-134-87-195.8-21.4-29.4-43.4-56-61.6-77l-1.2-1.4zM256 256c0 35.346-28.654 64-64 64s-64-28.654-64-64v0c0-35.346 28.654-64 64-64s64 28.654 64 64v0zM832 704c35.346 0 64 28.654 64 64s-28.654 64-64 64v0c-35.346 0-64-28.654-64-64s28.654-64 64-64v0z" />
<glyph unicode="&#xe916;" glyph-name="route-regular" d="M877.2 648.6c-14.4-23-30-45.2-45.2-65.4-15 20.2-30.8 42.4-45.2 65.4-35.4 56.8-50.8 98.8-50.8 119.4 0 53 43 96 96 96s96-43 96-96c0-20.6-15.4-62.6-50.8-119.4zM854.8 458c51 59.8 169.2 209.6 169.2 310 0 106-86 192-192 192s-192-86-192-192c0-66.6 51.8-154.6 101.6-224h-85.6c-97.2 0-176-78.8-176-176s78.8-176 176-176h192c44.2 0 80-35.8 80-80s-35.8-80-80-80h-492.4c-5.4-7.6-11-15.2-16.4-22.4-21.4-28.4-42.6-53.8-60-73.6h568.8c97.2 0 176 78.8 176 176s-78.8 176-176 176h-192c-44.2 0-80 35.8-80 80s35.8 80 80 80h169.8c10.2-2.2 21.4 1.2 29 10zM237.8 143.2c-14.6-22-30.6-43.4-45.8-62.4-15.2 19-31.2 40.4-45.8 62.4-35.4 53.4-50.2 93-50.2 112.8 0 53 43 96 96 96s96-43 96-96c0-19.8-14.8-59.4-50.2-112.8zM275.8 32c51.8 66.2 108.2 154.6 108.2 224 0 106-86 192-192 192s-192-86-192-192c0-101 119.6-242 170-296.8 12-13 32-13 43.8 0 0.2 0.2 0.4 0.4 0.6 0.6 0.6 0.6 1.2 1.4 1.8 2 5.6 6.2 12 13.4 19 21.4 0.2 0.2 0.2 0.2 0.4 0.4 12.2 14 26 30.4 40 48.4z" />
<glyph unicode="&#xe917;" glyph-name="truck-fast-solid" horiz-adv-x="1280" d="M224 960c-53 0-96-43-96-96v-96h-96c-17.6 0-32-14.4-32-32s14.4-32 32-32h512c17.6 0 32-14.4 32-32s-14.4-32-32-32h-448c-17.6 0-32-14.4-32-32s14.4-32 32-32h384c17.6 0 32-14.4 32-32s-14.4-32-32-32h-448c-17.6 0-32-14.4-32-32s14.4-32 32-32h384c17.6 0 32-14.4 32-32s-14.4-32-32-32h-288v-256c0-106 86-192 192-192s192 86 192 192h256c0-106 86-192 192-192s192 86 192 192h64c35.4 0 64 28.6 64 64s-28.6 64-64 64v229.4c0 34-13.4 66.6-37.4 90.6l-154.6 154.6c-24 24-56.6 37.4-90.6 37.4h-101.4v96c0 53-43 96-96 96h-512zM1088 485.4v-37.4h-256v192h101.4l154.6-154.6zM320 224c53.019 0 96-42.981 96-96s-42.981-96-96-96v0c-53.019 0-96 42.981-96 96s42.981 96 96 96v0zM864 128c0 53.019 42.981 96 96 96s96-42.981 96-96v0c0-53.019-42.981-96-96-96s-96 42.981-96 96v0z" />
<glyph unicode="&#xe918;" glyph-name="truck-fast-regular" horiz-adv-x="1280" d="M704 864h-448c-17.6 0-32-14.4-32-32v-64h256c17.6 0 32-14.4 32-32s-14.4-32-32-32h-448c-17.6 0-32 14.4-32 32s14.4 32 32 32h96v64c0 70.6 57.4 128 128 128h448c70.6 0 128-57.4 128-128v-64h85.4c29.8 0 58.2-11.8 79.2-32.8l186.6-186.6c21-21 32.8-49.4 32.8-79.2v-245.4h16c26.6 0 48-21.4 48-48s-21.4-48-48-48h-80c0-106-86-192-192-192s-192 86-192 192h-256c0-106-86-192-192-192s-192 86-192 192v256h96v-89.6c28.2 16.4 61 25.6 96 25.6 71 0 133.2-38.6 166.4-96h217.6c17.6 0 32 14.4 32 32v576c0 17.6-14.4 32-32 32zM1115.4 480.8l-186.6 186.6c-3 3-7 4.6-11.4 4.6h-85.4v-192h284l-0.8 0.8zM416 128c0 53.019-42.981 96-96 96s-96-42.981-96-96v0c0-53.019 42.981-96 96-96s96 42.981 96 96v0zM960 32c53.019 0 96 42.981 96 96s-42.981 96-96 96v0c-53.019 0-96-42.981-96-96s42.981-96 96-96v0zM96 640h448c17.6 0 32-14.4 32-32s-14.4-32-32-32h-448c-17.6 0-32 14.4-32 32s14.4 32 32 32zM32 512h448c17.6 0 32-14.4 32-32s-14.4-32-32-32h-448c-17.6 0-32 14.4-32 32s14.4 32 32 32z" />
<glyph unicode="&#xe919;" glyph-name="bags-shopping-solid" horiz-adv-x="1152" d="M352 768v-128h192v128c0 53-43 96-96 96s-96-43-96-96zM256 640v128c0 106 86 192 192 192s192-86 192-192v-128h128c70.6 0 128-57.4 128-128h-416c-88.4 0-160-71.6-160-160v-320c0-11 1.2-21.6 3.2-32h-195.2c-70.6 0-128 57.4-128 128v384c0 70.6 57.4 128 128 128h128zM512 448h512c70.6 0 128-57.4 128-128v-256c0-70.6-57.4-128-128-128h-512c-70.6 0-128 57.4-128 128v256c0 70.6 57.4 128 128 128zM640 288c0 17.6-14.4 32-32 32s-32-14.4-32-32v-32c0-106 86-192 192-192s192 86 192 192v32c0 17.6-14.4 32-32 32s-32-14.4-32-32v-32c0-70.6-57.4-128-128-128s-128 57.4-128 128v32z" />
<glyph unicode="&#xe91a;" glyph-name="box-open-full-solid" horiz-adv-x="1280" d="M1017.8 830.2l-55-146.8-322.8-40.4-14.4 1.8c9.2 17.6 14.4 37.8 14.4 59.2 0 70.6-57.4 128-128 128s-128-57.4-128-128c0-10.2 1.2-20 3.4-29.4l-131 16.4c-0.2 4.4-0.4 8.6-0.4 13 0 141.4 114.6 256 256 256 139.2 0 252.4-111.2 256-249.4l70.2 187.2c18.6 49.6 74 74.8 123.6 56.2s74.8-74 56.2-123.6zM1152 283.4v-166.8c0-29.4-20-55-48.4-62l-432.6-108.2c-20.4-5.2-41.8-5.2-62 0l-432.6 108c-28.4 7.2-48.4 32.8-48.4 62.2v166.8l255.2-73c55.6-16 115.2 7.6 145 57.2l111.8 186.6 111.8-186.4c29.8-49.6 89.2-73.2 145-57.2l255.2 72.8zM117.8 622.4c6 12.2 19.2 19.2 32.6 17.4l489.6-61.2 489.6 61.2c13.4 1.6 26.6-5.4 32.6-17.4l83.4-166.8c18-35.8-1.2-79.2-39.6-90.2l-326.8-93.4c-27.8-8-57.6 3.8-72.4 28.6l-166.8 278-166.8-278c-14.8-24.8-44.6-36.6-72.4-28.6l-326.6 93.4c-38.6 11-57.6 54.4-39.6 90.2l83.4 166.8z" />
<glyph unicode="&#xe91b;" glyph-name="box-open-full-regular" horiz-adv-x="1280" d="M961.8 953.8c-49.8 18.6-105-6.4-123.6-56.2l-70.2-187.2c-3.6 138.4-116.8 249.6-256 249.6-141.4 0-256-114.6-256-256 0-4.4 0.2-8.6 0.4-13l131-16.4c-2.2 9.4-3.4 19.2-3.4 29.4 0 70.6 57.4 128 128 128s128-57.4 128-128c0-21.4-5.2-41.4-14.4-59.2l14.4-1.8 322.8 40.4 55 146.8c18.6 49.6-6.6 105-56.2 123.6zM117.8 619.8l-83.4-166.8c-18-35.8 1.2-79.2 39.6-90.2l326.6-93.4c27.8-8 57.6 3.8 72.4 28.6l167 278-489.6 61.2c-13.4 1.6-26.6-5.4-32.6-17.4zM1152 280.8l-96-27.4v-114.4l-368-92v289c0 26.6-21.4 48-48 48s-48-21.4-48-48v-289l-368 92v114.4l-96 27.4v-142c0-44 30-82.4 72.8-93.2l408.2-102c20.4-5 41.8-5 62 0l408.2 102c42.8 10.6 72.8 49 72.8 93.2v142zM1245.6 453l-83.4 166.8c-6 12.2-19.2 19.2-32.6 17.4l-489.6-61.2 166.8-278c14.8-24.8 44.6-36.6 72.4-28.6l326.6 93.4c38.6 11 57.6 54.4 39.6 90.2z" />
<glyph unicode="&#xe91c;" glyph-name="square-fragile-regular" horiz-adv-x="896" d="M128 800c-17.6 0-32-14.4-32-32v-640c0-17.6 14.4-32 32-32h640c17.6 0 32 14.4 32 32v640c0 17.6-14.4 32-32 32h-640zM0 768c0 70.6 57.4 128 128 128h640c70.6 0 128-57.4 128-128v-640c0-70.6-57.4-128-128-128h-640c-70.6 0-128 57.4-128 128v640zM256 691.4c0 24.6 20 44.6 44.6 44.6h51.4l64-128-64-64 160-128-64 128 96 64-64 128h115.4c24.6 0 44.6-20 44.6-44.6v-179.4c0-95.2-69.2-174.2-160-189.4v-98.6h64c17.6 0 32-14.4 32-32s-14.4-32-32-32h-192c-17.6 0-32 14.4-32 32s14.4 32 32 32h64v98.6c-90.8 15.2-160 94.2-160 189.4v179.4z" />
<glyph unicode="&#xe91d;" glyph-name="ban-regular" d="M770.2 121.8l-584.4 584.4c-56.2-70.8-89.8-160.6-89.8-258.2 0-229.8 186.2-416 416-416 97.6 0 187.4 33.6 258.2 89.8zM838 189.6c56.4 71 90 160.8 90 258.4 0 229.8-186.2 416-416 416-97.6 0-187.4-33.6-258.2-89.8l584.4-584.4zM0 448c0 282.77 229.23 512 512 512s512-229.23 512-512v0c0-282.77-229.23-512-512-512s-512 229.23-512 512v0z" />
<glyph unicode="&#xe91e;" glyph-name="arrow-right-arrow-left-regular" horiz-adv-x="896" d="M206-34c18.8-18.8 49.2-18.8 67.8 0s18.8 49.2 0 67.8l-110 110 684.2 0.2c26.6 0 48 21.4 48 48s-21.4 48-48 48h-684.2l110 110c18.8 18.8 18.8 49.2 0 67.8s-49.2 18.8-67.8 0l-192-191.8c-18.8-18.8-18.8-49.2 0-67.8l192-192zM882 670c18.8 18.8 18.8 49.2 0 67.8l-192 192.2c-18.8 18.8-49.2 18.8-67.8 0s-18.8-49.2 0-67.8l110-110-684.2-0.2c-26.6 0-48-21.4-48-48s21.4-48 48-48h684.2l-110-110c-18.8-18.8-18.8-49.2 0-67.8s49.2-18.8 67.8 0l192 192z" />
<glyph unicode="&#xe91f;" glyph-name="cart-circle-xmark-regular" horiz-adv-x="1280" d="M48 960c-26.6 0-48-21.4-48-48s21.4-48 48-48h104.2l120.6-633c4.4-22.6 24.2-39 47.2-39h321.4c-1 10.6-1.4 21.2-1.4 32 0 21.8 2 43.2 5.8 64h-286l-18.2 96h336.8c18.4 36 42.8 68.4 72 96h-427.2l-61 320h779l-63-224.2c4.6 0.2 9.2 0.2 13.8 0.2 28.6 0 56.6-3.4 83.2-9.8l70 248.6c11.4 40.6-19.2 81.2-61.6 81.2h-839.6l-4.8 25c-4.4 22.6-24.2 39-47.2 39h-144zM352-64c53.019 0 96 42.981 96 96s-42.981 96-96 96v0c-53.019 0-96-42.981-96-96s42.981-96 96-96v0zM992-64c159.058 0 288 128.942 288 288s-128.942 288-288 288v0c-159.058 0-288-128.942-288-288s128.942-288 288-288v0zM1110.6 297.4l-73.4-73.4 73.4-73.4c12.4-12.4 12.4-32.8 0-45.2s-32.8-12.4-45.2 0l-73.4 73.4-73.4-73.4c-12.4-12.4-32.8-12.4-45.2 0s-12.4 32.8 0 45.2l73.4 73.4-73.4 73.4c-12.4 12.4-12.4 32.8 0 45.2s32.8 12.4 45.2 0l73.4-73.4 73.4 73.4c12.4 12.4 32.8 12.4 45.2 0s12.4-32.8 0-45.2z" />
<glyph unicode="&#xe920;" glyph-name="bars-progress-regular" d="M928 736v-128h-288v128h288zM96 832c-53 0-96-43-96-96v-128c0-53 43-96 96-96h832c53 0 96 43 96 96v128c0 53-43 96-96 96h-832zM928 288v-128h-544v128h544zM96 384c-53 0-96-43-96-96v-128c0-53 43-96 96-96h832c53 0 96 43 96 96v128c0 53-43 96-96 96h-832z" />
<glyph unicode="&#xe921;" glyph-name="box-check-regular" horiz-adv-x="896" d="M496 800h188.8c12.6 0 24.2-7.4 29.2-19l62.8-141h-280.8v160zM96 544h704v-416c0-17.6-14.4-32-32-32h-640c-17.6 0-32 14.4-32 32v416zM400 640h-280.8l62.8 141c5.2 11.6 16.6 19 29.2 19h188.8v-160zM801.8 820c-20.6 46.2-66.4 76-117 76h-473.6c-50.6 0-96.4-29.8-117-76l-83.2-187.2c-7.2-16.4-11-34-11-52v-452.8c0-70.6 57.4-128 128-128h640c70.6 0 128 57.4 128 128v452.8c0 18-3.8 35.6-11 52l-83.2 187.2zM674 430c18.8 18.8 18.8 49.2 0 67.8s-49.2 18.8-67.8 0l-222-222-94 94c-18.8 18.8-49.2 18.8-67.8 0s-18.8-49.2 0-67.8l128-128c18.8-18.8 49.2-18.8 67.8 0l255.8 256z" />
<glyph unicode="&#xe922;" glyph-name="loader-regular" d="M560 912c0 26.6-21.4 48-48 48s-48-21.4-48-48v-160c0-26.6 21.4-48 48-48s48 21.4 48 48v160zM560 144c0 26.6-21.4 48-48 48s-48-21.4-48-48v-160c0-26.6 21.4-48 48-48s48 21.4 48 48v160zM0 448c0-26.6 21.4-48 48-48h160c26.6 0 48 21.4 48 48s-21.4 48-48 48h-160c-26.6 0-48-21.4-48-48zM816 496c-26.6 0-48-21.4-48-48s21.4-48 48-48h160c26.6 0 48 21.4 48 48s-21.4 48-48 48h-160zM874 810c-18.8 18.8-49.2 18.8-67.8 0l-113.2-113.2c-18.8-18.8-18.8-49.2 0-67.8s49.2-18.8 67.8 0l113.2 113.2c18.8 18.8 18.8 49.2 0 67.8zM331 199.2c18.8 18.8 18.8 49.2 0 67.8s-49.2 18.8-67.8 0l-113.2-113.2c-18.8-18.8-18.8-49.2 0-67.8s49.2-18.8 67.8 0l113.2 113.2zM150 810c-18.8-18.8-18.8-49.2 0-67.8l113.2-113.2c18.8-18.8 49.2-18.8 67.8 0s18.8 49.2 0 67.8l-113.2 113.2c-18.8 18.8-49.2 18.8-67.8 0zM761 267c-18.8 18.8-49.2 18.8-67.8 0s-18.8-49.2 0-67.8l113-113.2c18.8-18.8 49.2-18.8 67.8 0s18.8 49.2 0 67.8l-113.2 113.2z" />
<glyph unicode="&#xe923;" glyph-name="square-list-regular" horiz-adv-x="896" d="M128 800c-17.6 0-32-14.4-32-32v-640c0-17.6 14.4-32 32-32h640c17.6 0 32 14.4 32 32v640c0 17.6-14.4 32-32 32h-640zM0 768c0 70.6 57.4 128 128 128h640c70.6 0 128-57.4 128-128v-640c0-70.6-57.4-128-128-128h-640c-70.6 0-128 57.4-128 128v640zM192 640c0 35.346 28.654 64 64 64s64-28.654 64-64v0c0-35.346-28.654-64-64-64s-64 28.654-64 64v0zM400 640c0 26.6 21.4 48 48 48h192c26.6 0 48-21.4 48-48s-21.4-48-48-48h-192c-26.6 0-48 21.4-48 48zM400 448c0 26.6 21.4 48 48 48h192c26.6 0 48-21.4 48-48s-21.4-48-48-48h-192c-26.6 0-48 21.4-48 48zM400 256c0 26.6 21.4 48 48 48h192c26.6 0 48-21.4 48-48s-21.4-48-48-48h-192c-26.6 0-48 21.4-48 48zM256 384c-35.346 0-64 28.654-64 64s28.654 64 64 64v0c35.346 0 64-28.654 64-64s-28.654-64-64-64v0zM192 256c0 35.346 28.654 64 64 64s64-28.654 64-64v0c0-35.346-28.654-64-64-64s-64 28.654-64 64v0z" />
<glyph unicode="&#xe924;" glyph-name="cloud-arrow-up-light" horiz-adv-x="1280" d="M779.6 709.6c-52.2 74.2-138.2 122.4-235.6 122.4-154.8 0-281-122-287.8-275-1.2-26-18-48.8-42.6-57.6-87.2-30.8-149.6-113.8-149.6-211.4 0-123.8 100.2-224 224-224h736c106 0 192 86 192 192 0 73.6-41.4 137.6-102.4 169.8-26.8 14.2-40 45-31.6 74.2 4 13.8 6 28.6 6 44 0 88.4-71.6 160-160 160-24.6 0-47.8-5.6-68.6-15.4-28.2-13.4-61.8-4.6-79.8 21zM544 896c119 0 224.2-59 288-149.6 29 13.8 61.6 21.6 96 21.6 123.8 0 224-100.2 224-224 0-21.4-3-42-8.6-61.6 81.2-42.8 136.6-128.2 136.6-226.4 0-141.4-114.6-256-256-256h-736c-159 0-288 129-288 288 0 125.6 80.4 232.2 192.4 271.8 8.2 187 162.4 336.2 351.6 336.2zM457.4 470.6l160 160c12.4 12.4 32.8 12.4 45.2 0l160-160c12.4-12.4 12.4-32.8 0-45.2s-32.8-12.4-45.2 0l-105.4 105.4v-306.8c0-17.6-14.4-32-32-32s-32 14.4-32 32v306.8l-105.4-105.4c-12.4-12.4-32.8-12.4-45.2 0s-12.4 32.8 0 45.2z" />
<glyph unicode="&#xe925;" glyph-name="calendar-regular" horiz-adv-x="896" d="M304 912c0 26.6-21.4 48-48 48s-48-21.4-48-48v-80h-80c-70.6 0-128-57.4-128-128v-640c0-70.6 57.4-128 128-128h640c70.6 0 128 57.4 128 128v640c0 70.6-57.4 128-128 128h-80v80c0 26.6-21.4 48-48 48s-48-21.4-48-48v-80h-288v80zM96 576h704v-512c0-17.6-14.4-32-32-32h-640c-17.6 0-32 14.4-32 32v512z" />
<glyph unicode="&#xe926;" glyph-name="wallet-regular" d="M176 896c-97.2 0-176-78.8-176-176v-544c0-97.2 78.8-176 176-176h672c97.2 0 176 78.8 176 176v352c0 97.2-78.8 176-176 176h-608c-26.6 0-48-21.4-48-48s21.4-48 48-48h608c44.2 0 80-35.8 80-80v-352c0-44.2-35.8-80-80-80h-672c-44.2 0-80 35.8-80 80v544c0 44.2 35.8 80 80 80h736c26.6 0 48 21.4 48 48s-21.4 48-48 48h-736zM768 288c35.346 0 64 28.654 64 64s-28.654 64-64 64v0c-35.346 0-64-28.654-64-64s28.654-64 64-64v0z" />
<glyph unicode="&#xe927;" glyph-name="shop-regular" horiz-adv-x="1280" d="M0 588.4c0 12.8 3.2 25.4 9.4 36.6l155.4 285c16.8 30.8 49 50 84.2 50h782c35.2 0 67.4-19.2 84.2-50l155.4-284.8c6.2-11.2 9.4-23.8 9.4-36.6 0-42.2-34.2-76.4-76.4-76.4h-51.6v-528.2c0-26.6-21.4-48-48-48s-48 21.4-48 48v528h-288v-496c0-44.2-35.8-80-80-80h-480c-44.2 0-80 35.8-80 80v496h-51.6c-42.2 0-76.4 34.2-76.4 76.4zM224 512v-192h448v192h-448zM1031 864h-782l-139.6-256h1061.2l-139.6 256zM224 32h448v192h-448v-192z" />
<glyph unicode="&#xe928;" glyph-name="bags-shopping-regular" horiz-adv-x="1152" d="M352 768c0 53 43 96 96 96s96-43 96-96v-128h-192v128zM256 640h-128c-70.6 0-128-57.4-128-128v-384c0-70.6 57.4-128 128-128h192v96h-192c-17.6 0-32 14.4-32 32v384c0 17.6 14.4 32 32 32h640c17.6 0 32-14.4 32-32h96c0 70.6-57.4 128-128 128h-128v128c0 106-86 192-192 192s-192-86-192-192v-128zM512 448c-70.6 0-128-57.4-128-128v-256c0-70.6 57.4-128 128-128h512c70.6 0 128 57.4 128 128v256c0 70.6-57.4 128-128 128h-512zM640 288v-32c0-70.6 57.4-128 128-128s128 57.4 128 128v32c0 17.6 14.4 32 32 32s32-14.4 32-32v-32c0-106-86-192-192-192s-192 86-192 192v32c0 17.6 14.4 32 32 32s32-14.4 32-32z" />
<glyph unicode="&#xe929;" glyph-name="money-check-dollar-regular" horiz-adv-x="1152" d="M128 736c-17.6 0-32-14.4-32-32v-512c0-17.6 14.4-32 32-32h896c17.6 0 32 14.4 32 32v512c0 17.6-14.4 32-32 32h-896zM0 704c0 70.6 57.4 128 128 128h896c70.6 0 128-57.4 128-128v-512c0-70.6-57.4-128-128-128h-896c-70.6 0-128 57.4-128 128v512zM560 416h352c26.6 0 48-21.4 48-48s-21.4-48-48-48h-352c-26.6 0-48 21.4-48 48s21.4 48 48 48zM512 560c0 26.6 21.4 48 48 48h352c26.6 0 48-21.4 48-48s-21.4-48-48-48h-352c-26.6 0-48 21.4-48 48zM360 656v-27.8c15-2.4 29.2-5.8 42.2-9.4 21.4-5.6 34-27.6 28.4-49s-27.6-34-49-28.4c-22 5.8-43.2 10-62.4 10.4-15.8 0.2-32-3.6-43-10-9.6-5.6-12.4-11.2-12.4-18.6 0-3.6 0.2-7 10.6-13.4 12.6-7.6 31-13.4 56.6-21l1.4-0.4c22.4-6.8 51.2-15.4 74.2-30 25.8-16.2 48.6-42.6 49.2-83.2 0.6-41.8-21-72.2-49.6-90-14.4-9-30.4-14.6-46.4-18v-27.2c0-22-18-40-40-40s-40 18-40 40v29.2c-20.6 4.4-40 11-56.4 16.8v0 0c-4.2 1.4-8.2 2.8-12.2 4.2-21 7-32.2 29.6-25.2 50.6s29.6 32.2 50.6 25.2c5-1.6 9.8-3.4 14.4-4.8 27.2-9.2 48-16.2 70.2-17 17.2-0.6 33 3.2 42.8 9.4 8.2 5 12 11 11.8 21 0 5.8-1.6 10-11.8 16.4-12.6 8-30.8 13.8-56 21.4l-3.4 1c-21.8 6.6-49.2 14.8-71.2 28-25.4 15.4-49.2 41-49.4 81.4-0.2 42.2 23.6 71.4 51.6 87.8 13.8 8.2 29 13.6 44.4 17v28.4c0 22 18 40 40 40s40-18 40-40z" />
<glyph unicode="&#xe92a;" glyph-name="pen-to-square-regular" d="M882 842.2l24.2-24.2c18.8-18.8 18.8-49.2 0-67.8l-58.2-58.4-92.2 92.2 58.2 58.2c18.8 18.8 49.2 18.8 67.8 0zM419.6 447.6l268.4 268.6 92.2-92.2-268.6-268.4c-5.8-5.8-13-10-20.8-12.2l-117-33.4 33.4 117c2.2 7.8 6.4 15 12.2 20.8zM746.2 910l-394.6-394.4c-17.4-17.4-30-38.8-36.6-62.2l-57.2-200c-4.8-16.8-0.2-34.8 12.2-47.2s30.4-17 47.2-12.2l200 57.2c23.6 6.8 45 19.4 62.2 36.6l394.6 394.4c56.2 56.2 56.2 147.4 0 203.6l-24.2 24.2c-56.2 56.2-147.4 56.2-203.6 0zM176 832c-97.2 0-176-78.8-176-176v-544c0-97.2 78.8-176 176-176h544c97.2 0 176 78.8 176 176v224c0 26.6-21.4 48-48 48s-48-21.4-48-48v-224c0-44.2-35.8-80-80-80h-544c-44.2 0-80 35.8-80 80v544c0 44.2 35.8 80 80 80h224c26.6 0 48 21.4 48 48s-21.4 48-48 48h-224z" />
<glyph unicode="&#xe92b;" glyph-name="filters-regular" horiz-adv-x="1280" d="M467.6 896c-46.2 0-83.6-37.4-83.6-83.6 0-18.6 6.2-36.8 17.8-51.6l270.2-345.4v-127.8c0-24.6 11.2-47.8 30.6-63l185.8-146c42-33 103.6-3 103.6 50.4v286.4l270.2 345.4c11.6 14.8 17.8 32.8 17.8 51.6 0 46.2-37.4 83.6-83.6 83.6h-728.8zM757.8 461.6l-264.8 338.4h678l-264.8-338.4c-6.6-8.4-10.2-18.8-10.2-29.6v-237.2l-128 100.6v136.6c0 10.8-3.6 21.2-10.2 29.6zM326.8 768h-243.2c-46.2 0-83.6-37.4-83.6-83.6 0-18.6 6.2-36.8 17.8-51.6l270.2-345.4v-63.8c0-24.6 11.2-47.8 30.6-63l185.8-146c42-33 103.6-3 103.6 50.4v328.4l-19.4 25-66.4-84.8c-6.6-8.4-10.2-18.8-10.2-29.6v-173.2l-128 100.6v72.6c0 10.8-3.6 21.2-10.2 29.6l-264.8 338.4h281l-38.6 49.2c-11 14-19.2 30-24.6 46.8z" />
<glyph unicode="&#xe92c;" glyph-name="list-solid" d="M80 864c-26.6 0-48-21.4-48-48v-96c0-26.6 21.4-48 48-48h96c26.6 0 48 21.4 48 48v96c0 26.6-21.4 48-48 48h-96zM384 832c-35.4 0-64-28.6-64-64s28.6-64 64-64h576c35.4 0 64 28.6 64 64s-28.6 64-64 64h-576zM384 512c-35.4 0-64-28.6-64-64s28.6-64 64-64h576c35.4 0 64 28.6 64 64s-28.6 64-64 64h-576zM384 192c-35.4 0-64-28.6-64-64s28.6-64 64-64h576c35.4 0 64 28.6 64 64s-28.6 64-64 64h-576zM32 496v-96c0-26.6 21.4-48 48-48h96c26.6 0 48 21.4 48 48v96c0 26.6-21.4 48-48 48h-96c-26.6 0-48-21.4-48-48zM80 224c-26.6 0-48-21.4-48-48v-96c0-26.6 21.4-48 48-48h96c26.6 0 48 21.4 48 48v96c0 26.6-21.4 48-48 48h-96z" />
<glyph unicode="&#xe92d;" glyph-name="list-regular" d="M80 864c-26.6 0-48-21.4-48-48v-96c0-26.6 21.4-48 48-48h96c26.6 0 48 21.4 48 48v96c0 26.6-21.4 48-48 48h-96zM368 816c-26.6 0-48-21.4-48-48s21.4-48 48-48h608c26.6 0 48 21.4 48 48s-21.4 48-48 48h-608zM368 496c-26.6 0-48-21.4-48-48s21.4-48 48-48h608c26.6 0 48 21.4 48 48s-21.4 48-48 48h-608zM368 176c-26.6 0-48-21.4-48-48s21.4-48 48-48h608c26.6 0 48 21.4 48 48s-21.4 48-48 48h-608zM32 496v-96c0-26.6 21.4-48 48-48h96c26.6 0 48 21.4 48 48v96c0 26.6-21.4 48-48 48h-96c-26.6 0-48-21.4-48-48zM80 224c-26.6 0-48-21.4-48-48v-96c0-26.6 21.4-48 48-48h96c26.6 0 48 21.4 48 48v96c0 26.6-21.4 48-48 48h-96z" />
<glyph unicode="&#xe92e;" glyph-name="grid-2-solid" d="M448 800c0 53-43 96-96 96h-192c-53 0-96-43-96-96v-192c0-53 43-96 96-96h192c53 0 96 43 96 96v192zM448 288c0 53-43 96-96 96h-192c-53 0-96-43-96-96v-192c0-53 43-96 96-96h192c53 0 96 43 96 96v192zM576 800v-192c0-53 43-96 96-96h192c53 0 96 43 96 96v192c0 53-43 96-96 96h-192c-53 0-96-43-96-96zM960 288c0 53-43 96-96 96h-192c-53 0-96-43-96-96v-192c0-53 43-96 96-96h192c53 0 96 43 96 96v192z" />
<glyph unicode="&#xe92f;" glyph-name="grid-2-regular" d="M160 800v-192h192v192h-192zM64 800c0 53 43 96 96 96h192c53 0 96-43 96-96v-192c0-53-43-96-96-96h-192c-53 0-96 43-96 96v192zM160 288v-192h192v192h-192zM64 288c0 53 43 96 96 96h192c53 0 96-43 96-96v-192c0-53-43-96-96-96h-192c-53 0-96 43-96 96v192zM864 800h-192v-192h192v192zM672 896h192c53 0 96-43 96-96v-192c0-53-43-96-96-96h-192c-53 0-96 43-96 96v192c0 53 43 96 96 96zM672 288v-192h192v192h-192zM576 288c0 53 43 96 96 96h192c53 0 96-43 96-96v-192c0-53-43-96-96-96h-192c-53 0-96 43-96 96v192z" />
<glyph unicode="&#xe930;" glyph-name="xmark-regular" horiz-adv-x="768" d="M690 686c18.8 18.8 18.8 49.2 0 67.8s-49.2 18.8-67.8 0l-238-238-238.2 238.2c-18.8 18.8-49.2 18.8-67.8 0s-18.8-49.2 0-67.8l238-238-238.2-238.2c-18.8-18.8-18.8-49.2 0-67.8s49.2-18.8 67.8 0l238 238 238.2-238.2c18.8-18.8 49.2-18.8 67.8 0s18.8 49.2 0 67.8l-238 238 238.2 238.2z" />
<glyph unicode="&#xe931;" glyph-name="caret-left-solid" horiz-adv-x="512" d="M18.8 402.8c-25 25-25 65.6 0 90.6l256 256c18.4 18.4 45.8 23.8 69.8 13.8s39.6-33.2 39.6-59.2v-512c0-25.8-15.6-49.2-39.6-59.2s-51.4-4.4-69.8 13.8l-256 256z" />
<glyph unicode="&#xe932;" glyph-name="caret-right-solid" horiz-adv-x="512" d="M493.2 402.8c25 25 25 65.6 0 90.6l-256 256c-18.4 18.4-45.8 23.8-69.8 13.8s-39.6-33.2-39.6-59.2v-512c0-25.8 15.6-49.2 39.6-59.2s51.4-4.4 69.8 13.8l256 256z" />
<glyph unicode="&#xe933;" glyph-name="caret-down-solid" horiz-adv-x="640" d="M274.8 210.8c25-25 65.6-25 90.6 0l256 256c18.4 18.4 23.8 45.8 13.8 69.8s-33.2 39.6-59.2 39.6l-512-0.2c-25.8 0-49.2-15.6-59.2-39.6s-4.4-51.4 13.8-69.8l256-256z" />
<glyph unicode="&#xe934;" glyph-name="caret-up-solid" horiz-adv-x="640" d="M365.2 685.2c-25 25-65.6 25-90.6 0l-256-256c-18.4-18.4-23.8-45.8-13.8-69.8s33.2-39.6 59.2-39.6h512c25.8 0 49.2 15.6 59.2 39.6s4.4 51.4-13.8 69.8l-256 256z" />
<glyph unicode="&#xe935;" glyph-name="ellipsis-vertical-regular" horiz-adv-x="256" d="M128 224c-53.019 0-96-42.981-96-96s42.981-96 96-96v0c53.019 0 96 42.981 96 96s-42.981 96-96 96v0zM128 544c-53.019 0-96-42.981-96-96s42.981-96 96-96v0c53.019 0 96 42.981 96 96s-42.981 96-96 96v0zM224 768c0 53.019-42.981 96-96 96s-96-42.981-96-96v0c0-53.019 42.981-96 96-96s96 42.981 96 96v0z" />
<glyph unicode="&#xe936;" glyph-name="star-solid" horiz-adv-x="1152" d="M633.8 924c-10.6 22-33 36-57.6 36s-46.8-14-57.6-36l-128.6-264.6-287.2-42.4c-24-3.6-44-20.4-51.4-43.4s-1.4-48.4 15.8-65.4l208.4-206.2-49.2-291.4c-4-24 6-48.4 25.8-62.6s46-16 67.6-4.6l256.6 137 256.6-137c21.6-11.4 47.8-9.8 67.6 4.6s29.8 38.6 25.8 62.6l-49.4 291.4 208.4 206.2c17.2 17 23.4 42.4 15.8 65.4s-27.4 39.8-51.4 43.4l-287.4 42.4-128.6 264.6z" />
<glyph unicode="&#xe937;" glyph-name="star-regular" horiz-adv-x="1152" d="M575.8 960c18.4 0 35.2-10.4 43.2-27l137.2-282.6 306.4-45.2c18-2.6 33-15.2 38.6-32.6s1-36.2-11.8-49l-222.2-220.4 52.4-311.2c3-18-4.4-36.2-19.2-47s-34.6-12-50.6-3.4l-274 146.4-273.8-146.2c-16.2-8.6-35.8-7.4-50.6 3.4s-22.4 29-19.4 47l52.4 311.2-222.2 220.2c-13 12.8-17.4 31.8-11.8 49s20.6 29.8 38.6 32.6l306.4 45.2 137.2 282.6c8.2 16.6 24.8 27 43.2 27zM575.8 802l-105-216.4c-7-14.2-20.4-24.2-36.2-26.6l-236.6-34.8 171.8-170.2c11-11 16.2-26.6 13.6-42l-40.6-239.4 210.4 112.4c14.2 7.6 31.2 7.6 45.2 0l210.4-112.4-40.4 239.2c-2.6 15.4 2.4 31 13.6 42l171.8 170.2-236.6 35c-15.6 2.4-29.2 12.2-36.2 26.6l-105.2 216.4z" />
<glyph unicode="&#xe938;" glyph-name="cart-shopping-regular" horiz-adv-x="1152" d="M48 960c-26.6 0-48-21.4-48-48s21.4-48 48-48h91c7.6 0 14.2-5.4 15.8-13l103.2-542c13-68 72.4-117 141.4-117h576.6c26.6 0 48 21.4 48 48s-21.4 48-48 48h-576.6c-23 0-42.8 16.4-47.2 39l-10.8 57h577c65.2 0 122.2 43.6 139 106.6l82 304.6c13.8 50.8-24.6 100.8-77.2 100.8h-822c-18.2 38.4-57 64-101.2 64h-91zM262.2 800h779.2l-76.6-284.4c-5.6-21-24.6-35.6-46.4-35.6h-595.2l-61 320zM352-64c53.019 0 96 42.981 96 96s-42.981 96-96 96v0c-53.019 0-96-42.981-96-96s42.981-96 96-96v0zM1024 32c0 53.019-42.981 96-96 96s-96-42.981-96-96v0c0-53.019 42.981-96 96-96s96 42.981 96 96v0z" />
<glyph unicode="&#xe939;" glyph-name="moon-regular" horiz-adv-x="768" d="M289.4 762.6c-42-68.2-66.2-148.6-66.2-234.6 0-196 125.6-362.8 300.8-423.4-24.8-5.6-50.6-8.6-77.2-8.6-193.6 0-350.8 157.4-350.8 352 0 137.8 78.8 256.8 193.6 314.6zM413.6 894.6c-231.4-17-413.6-210.4-413.6-446.6 0-247.4 200-448 447-448 95.6 0 184 30 256.8 81.2 3.8 2.6 7.4 5.4 11 8 9.6 7.2 18.8 14.8 27.8 22.8 5.4 4.8 10.6 9.6 15.8 14.6 10 9.8 12.6 25 6.2 37.4s-20.2 19.4-34 17c-7.4-1.2-14.8-2.4-22.2-3.2-10-1-20.2-1.8-30.6-2-2.4 0-5 0-7.4 0-0.2 0-0.4 0-0.6 0-193.6 0.4-350.4 157.8-350.4 352 0 109.6 49.8 207.4 128.2 272 2 1.8 4.2 3.4 6.4 5.2 8 6.4 16.4 12.4 25 18 6.2 4 12.6 8 19.2 11.6 12.2 7 18.4 21 15.4 34.6s-14.6 23.8-28.6 25c-7.2 0.6-14.2 1-21.4 1.2-5.4 0.2-11 0.2-16.4 0.2-6.6 0-13-0.2-19.6-0.4-4.6-0.2-9.2-0.4-13.8-0.8z" />
<glyph unicode="&#xe93a;" glyph-name="moon-stars-regular" d="M591.6 684.4c2-7.2 8.8-12.4 16.4-12.4s14.2 5 16.4 12.4l22 77.2 77.2 22c7.2 2 12.4 8.8 12.4 16.4s-5 14.2-12.4 16.4l-77.2 22-22 77.2c-2 7.2-8.8 12.4-16.4 12.4s-14.2-5-16.4-12.4l-22-77.2-77.2-22c-7.2-2-12.4-8.8-12.4-16.4s5-14.2 12.4-16.4l77.2-22 22-77.2zM807.6 338.4c3.2-11 13.2-18.4 24.4-18.4s21.4 7.6 24.4 18.4l33.2 116 116 33.2c11 3.2 18.4 13.2 18.4 24.4s-7.6 21.4-18.4 24.4l-116 33.2-33.2 116c-3.2 11-13.2 18.4-24.4 18.4s-21.4-7.6-24.4-18.4l-33.2-116-116-33.2c-11-3.2-18.4-13.2-18.4-24.4s7.6-21.4 18.4-24.4l116-33.2 33.2-116zM96 320c0 140 100 256.6 232.4 282.6-45.2-55.2-72.4-125.6-72.4-202.6 0-166.4 127-303.2 289.4-318.6-46-31.2-101.6-49.4-161.4-49.4-159 0-288 129-288 288zM384 704c-212 0-384-172-384-384s172-384 384-384c138.8 0 260.4 73.8 327.8 184 10.6 17.4 9.2 39.8-4 55.6s-34.6 21.6-53.8 14.4c-24.2-9-50.6-14-78.2-14-123.8 0-224 100.2-224 224 0 90 53.2 167.8 130 203.4 18.6 8.6 29.6 28 27.6 48.4s-16.8 37.2-36.6 41.8c-28.6 6.8-58.4 10.4-88.8 10.4z" />
<glyph unicode="&#xe93b;" glyph-name="sun-bright-regular" d="M560 912v-128c0-26.6-21.4-48-48-48s-48 21.4-48 48v128c0 26.6 21.4 48 48 48s48-21.4 48-48zM874 742.2l-90.6-90.6c-18.8-18.8-49.2-18.8-67.8 0s-18.8 49.2 0 67.8l90.6 90.6c18.8 18.8 49.2 18.8 67.8 0s18.8-49.2 0-67.8zM217.8 810l90.6-90.6c18.8-18.8 18.8-49.2 0-67.8s-49.2-18.8-67.8 0l-90.6 90.6c-18.8 18.8-18.8 49.2 0 67.8s49.2 18.8 67.8 0zM48 496h128c26.6 0 48-21.4 48-48s-21.4-48-48-48h-128c-26.6 0-48 21.4-48 48s21.4 48 48 48zM848 496h128c26.6 0 48-21.4 48-48s-21.4-48-48-48h-128c-26.6 0-48 21.4-48 48s21.4 48 48 48zM308.4 176.4l-90.6-90.4c-18.8-18.8-49.2-18.8-67.8 0s-18.8 49.2 0 67.8l90.6 90.6c18.8 18.8 49.2 18.8 67.8 0s18.8-49.2 0-67.8zM783.6 244.2l90.4-90.4c18.8-18.8 18.8-49.2 0-67.8s-49.2-18.8-67.8 0l-90.6 90.6c-18.8 18.8-18.8 49.2 0 67.8s49.2 18.8 67.8 0zM560 112v-128c0-26.6-21.4-48-48-48s-48 21.4-48 48v128c0 26.6 21.4 48 48 48s48-21.4 48-48zM640 448c0 70.692-57.308 128-128 128s-128-57.308-128-128v0c0-70.692 57.308-128 128-128s128 57.308 128 128v0zM288 448c0 123.712 100.288 224 224 224s224-100.288 224-224v0c0-123.712-100.288-224-224-224s-224 100.288-224 224v0z" />
<glyph unicode="&#xe93c;" glyph-name="bell-regular" horiz-adv-x="896" d="M448 960c-35.4 0-64-28.6-64-64v-35.8c-145-23-256-148.6-256-300.2v-66.8c0-90.8-31-179-87.6-249.8l-29.8-37.4c-11.6-14.4-13.8-34.2-5.8-50.8s24.8-27.2 43.2-27.2h800c18.4 0 35.2 10.6 43.2 27.2s5.8 36.4-5.8 50.8l-29.8 37.2c-56.6 71-87.6 159.2-87.6 250v66.8c0 151.6-111 277.2-256 300.2v35.8c0 35.4-28.6 64-64 64zM448 768h16c114.8 0 208-93.2 208-208v-66.8c0-95.8 27.8-189.2 79.4-269.2h-606.8c51.6 80 79.4 173.4 79.4 269.2v66.8c0 114.8 93.2 208 208 208h16zM576 64h-256c0-34 13.4-66.6 37.4-90.6s56.6-37.4 90.6-37.4 66.6 13.4 90.6 37.4 37.4 56.6 37.4 90.6z" />
<glyph unicode="&#xe93d;" glyph-name="magnifying-glass-regular" d="M736 544c0 176.731-143.269 320-320 320s-320-143.269-320-320v0c0-176.731 143.269-320 320-320s320 143.269 320 320v0zM674.2 217.8c-70.8-56.2-160.6-89.8-258.2-89.8-229.8 0-416 186.2-416 416s186.2 416 416 416 416-186.2 416-416c0-97.6-33.6-187.4-89.8-258.2l267.8-267.8c18.8-18.8 18.8-49.2 0-67.8s-49.2-18.8-67.8 0l-268 267.6z" />
<glyph unicode="&#xe93e;" glyph-name="bag-shopping-solid" horiz-adv-x="896" d="M320 736c0 70.6 57.4 128 128 128s128-57.4 128-128v-96h-256v96zM224 640h-128c-53 0-96-43-96-96v-416c0-106 86-192 192-192h512c106 0 192 86 192 192v416c0 53-43 96-96 96h-128v96c0 123.8-100.2 224-224 224s-224-100.2-224-224v-96zM272 544c26.51 0 48-21.49 48-48s-21.49-48-48-48v0c-26.51 0-48 21.49-48 48s21.49 48 48 48v0zM576 496c0 26.51 21.49 48 48 48s48-21.49 48-48v0c0-26.51-21.49-48-48-48s-48 21.49-48 48v0z" />
<glyph unicode="&#xe93f;" glyph-name="arrow-down-to-line-solid" horiz-adv-x="768" d="M64 0c-35.4 0-64 28.6-64 64s28.6 64 64 64h640c35.4 0 64-28.6 64-64s-28.6-64-64-64h-640zM429.2 274.8c-25-25-65.6-25-90.6 0l-256 256c-25 25-25 65.6 0 90.6s65.6 25 90.6 0l146.8-146.8v357.4c0 35.4 28.6 64 64 64s64-28.6 64-64v-357.4l146.8 146.8c25 25 65.6 25 90.6 0s25-65.6 0-90.6l-256-256z" />
<glyph unicode="&#xe940;" glyph-name="user-plus-solid" horiz-adv-x="1280" d="M192 704c0 141.385 114.615 256 256 256s256-114.615 256-256v0c0-141.385-114.615-256-256-256s-256 114.615-256 256v0zM0-4.6c0 197 159.6 356.6 356.6 356.6h182.8c197 0 356.6-159.6 356.6-356.6 0-32.8-26.6-59.4-59.4-59.4h-777.2c-32.8 0-59.4 26.6-59.4 59.4zM1008 336v128h-128c-26.6 0-48 21.4-48 48s21.4 48 48 48h128v128c0 26.6 21.4 48 48 48s48-21.4 48-48v-128h128c26.6 0 48-21.4 48-48s-21.4-48-48-48h-128v-128c0-26.6-21.4-48-48-48s-48 21.4-48 48z" />
<glyph unicode="&#xe941;" glyph-name="wallet-solid" d="M128 896c-70.6 0-128-57.4-128-128v-640c0-70.6 57.4-128 128-128h768c70.6 0 128 57.4 128 128v448c0 70.6-57.4 128-128 128h-736c-17.6 0-32 14.4-32 32s14.4 32 32 32h736c35.4 0 64 28.6 64 64s-28.6 64-64 64h-768zM832 416c35.346 0 64-28.654 64-64s-28.654-64-64-64v0c-35.346 0-64 28.654-64 64s28.654 64 64 64v0z" />
<glyph unicode="&#xe942;" glyph-name="chevron-left-regular" horiz-adv-x="640" d="M30 482c-18.8-18.8-18.8-49.2 0-67.8l384-384.2c18.8-18.8 49.2-18.8 67.8 0s18.8 49.2 0 67.8l-350 350.2 350.2 350c18.8 18.8 18.8 49.2 0 67.8s-49.2 18.8-67.8 0l-384.2-383.8z" />
<glyph unicode="&#xe943;" glyph-name="chevron-right-regular" horiz-adv-x="640" d="M610 482c18.8-18.8 18.8-49.2 0-67.8l-384-384.2c-18.8-18.8-49.2-18.8-67.8 0s-18.8 49.2 0 67.8l350 350-350.2 350.2c-18.8 18.8-18.8 49.2 0 67.8s49.2 18.8 67.8 0l384.2-383.8z" />
<glyph unicode="&#xe944;" glyph-name="chevron-down-regular" d="M478 158c18.8-18.8 49.2-18.8 67.8 0l384.2 384c18.8 18.8 18.8 49.2 0 67.8s-49.2 18.8-67.8 0l-350-350-350.2 350.2c-18.8 18.8-49.2 18.8-67.8 0s-18.8-49.2 0-67.8l383.8-384.2z" />
<glyph unicode="&#xe945;" glyph-name="chevron-up-regular" d="M478 738c18.8 18.8 49.2 18.8 67.8 0l384.2-384c18.8-18.8 18.8-49.2 0-67.8s-49.2-18.8-67.8 0l-350 350-350.2-350.2c-18.8-18.8-49.2-18.8-67.8 0s-18.8 49.2 0 67.8l383.8 384.2z" />
<glyph unicode="&#xe946;" glyph-name="arrow-trend-down-regular" horiz-adv-x="1152" d="M704 176c0-26.6 21.4-48 48-48h352c26.6 0 48 21.4 48 48v352c0 26.6-21.4 48-48 48s-48-21.4-48-48v-236.2l-382 382.2c-18.8 18.8-49.2 18.8-67.8 0l-222-222-302.2 302c-18.8 18.8-49.2 18.8-67.8 0s-18.8-49.2 0-67.8l335.8-336.2c18.8-18.8 49.2-18.8 67.8 0l222 222 348.4-348h-236.2c-26.6 0-48-21.4-48-48z" />
<glyph unicode="&#xe947;" glyph-name="arrow-trend-up-regular" horiz-adv-x="1152" d="M704 720c0 26.6 21.4 48 48 48h352c26.6 0 48-21.4 48-48v-352c0-26.6-21.4-48-48-48s-48 21.4-48 48v236.2l-382-382.2c-18.8-18.8-49.2-18.8-67.8 0l-222 222-302.2-302c-18.8-18.8-49.2-18.8-67.8 0s-18.8 49.2 0 67.8l335.8 336.2c18.8 18.8 49.2 18.8 67.8 0l222-222 348.4 348h-236.2c-26.6 0-48 21.4-48 48z" />
<glyph unicode="&#xe948;" glyph-name="arrow-right-from-bracket-solid" d="M1005.2 402.8c25 25 25 65.6 0 90.6l-256 256c-25 25-65.6 25-90.6 0s-25-65.6 0-90.6l146.8-146.8h-421.4c-35.4 0-64-28.6-64-64s28.6-64 64-64h421.4l-146.8-146.8c-25-25-25-65.6 0-90.6s65.6-25 90.6 0l256 256zM320 768c35.4 0 64 28.6 64 64s-28.6 64-64 64h-128c-106 0-192-86-192-192v-512c0-106 86-192 192-192h128c35.4 0 64 28.6 64 64s-28.6 64-64 64h-128c-35.4 0-64 28.6-64 64v512c0 35.4 28.6 64 64 64h128z" />
<glyph unicode="&#xe949;" glyph-name="check-regular" horiz-adv-x="896" d="M882 754c18.8-18.8 18.8-49.2 0-67.8l-528-528.2c-18.8-18.8-49.2-18.8-67.8 0l-272.2 272c-18.8 18.8-18.8 49.2 0 67.8s49.2 18.8 67.8 0l238-238 494.2 494.2c18.8 18.8 49.2 18.8 67.8 0z" />
<glyph unicode="&#xe94a;" glyph-name="floppy-disk-regular" horiz-adv-x="896" d="M96 768v-640c0-17.6 14.4-32 32-32h640c17.6 0 32 14.4 32 32v491c0 8.4-3.4 16.6-9.4 22.6l67.8 67.8c24-24 37.4-56.6 37.4-90.6v-490.8c0-70.6-57.4-128-128-128h-639.8c-70.6 0-128 57.4-128 128v640c0 70.6 57.4 128 128 128h491c34 0 66.6-13.4 90.6-37.4l149-149-67.8-67.8-149.2 148.8c-0.6 0.6-1 1-1.6 1.6v-200.2c0-26.6-21.4-48-48-48h-384c-26.6 0-48 21.4-48 48v208h-32c-17.6 0-32-14.4-32-32zM256 800v-160h288v160h-288zM320 320c0 70.692 57.308 128 128 128s128-57.308 128-128v0c0-70.692-57.308-128-128-128s-128 57.308-128 128v0z" />
<glyph unicode="&#xe94b;" glyph-name="bars-regular" horiz-adv-x="896" d="M0 784c0 26.6 21.4 48 48 48h800c26.6 0 48-21.4 48-48s-21.4-48-48-48h-800c-26.6 0-48 21.4-48 48zM0 464c0 26.6 21.4 48 48 48h800c26.6 0 48-21.4 48-48s-21.4-48-48-48h-800c-26.6 0-48 21.4-48 48zM896 144c0-26.6-21.4-48-48-48h-800c-26.6 0-48 21.4-48 48s21.4 48 48 48h800c26.6 0 48-21.4 48-48z" />
<glyph unicode="&#xe94c;" glyph-name="arrow-down-to-line-regular" horiz-adv-x="768" d="M720 0c26.6 0 48 21.4 48 48s-21.4 48-48 48h-672c-26.6 0-48-21.4-48-48s21.4-48 48-48h672zM349 271.2c9-9.6 21.8-15.2 35-15.2s25.8 5.4 35 15.2l256 272c18.2 19.4 17.2 49.6-2 67.8s-49.6 17.2-67.8-2l-173.2-184v423c0 26.6-21.4 48-48 48s-48-21.4-48-48v-423l-173 183.8c-18.2 19.4-48.6 20.2-67.8 2s-20.2-48.6-2-67.8l256-272z" />
<glyph unicode="&#xe94d;" glyph-name="plus-solid" horiz-adv-x="896" d="M512 800c0 35.4-28.6 64-64 64s-64-28.6-64-64v-288h-288c-35.4 0-64-28.6-64-64s28.6-64 64-64h288v-288c0-35.4 28.6-64 64-64s64 28.6 64 64v288h288c35.4 0 64 28.6 64 64s-28.6 64-64 64h-288v288z" />
<glyph unicode="&#xe94e;" glyph-name="minus-solid" horiz-adv-x="896" d="M864 448c0-35.4-28.6-64-64-64h-704c-35.4 0-64 28.6-64 64s28.6 64 64 64h704c35.4 0 64-28.6 64-64z" />
<glyph unicode="&#xe94f;" glyph-name="filters-solid" horiz-adv-x="1280" d="M464 896c-31.8 0-60.4-18.8-73.2-47.8s-7.2-63 14.4-86.4l298.8-324.8v-213c0-20.2 9.4-39.2 25.6-51.2l128-96c19.4-14.6 45.4-16.8 67-6s35.4 33 35.4 57.2v309l298.8 324.8c21.4 23.4 27.2 57.2 14.4 86.4s-41.4 47.8-73.2 47.8h-736zM80 768c-31.8 0-60.4-18.8-73.2-47.8s-7.2-63 14.4-86.4l298.8-324.8v-149c0-20.2 9.4-39.2 25.6-51.2l128-96c19.4-14.6 45.4-16.8 67-6s35.4 33 35.4 57.2v245l64 69.6v33.4l-282 306.6c-13.4 14.6-23.4 31.4-29.8 49.4h-248.2z" />
</font>
</defs>
</svg>
