<svg width="826" height="841" viewBox="0 0 826 841" fill="none" xmlns="http://www.w3.org/2000/svg">
<path fill-rule="evenodd" clip-rule="evenodd" d="M224.624 184.86C217.125 174.36 211.733 162.129 209.227 148.642C200.003 99.0042 233.089 51.3464 283.128 42.1948C295.205 39.9868 307.16 40.2445 318.488 42.5709C329.208 21.6967 349.244 5.8233 374.264 1.24747C416.935 -6.55569 455.083 23.1373 462.949 65.467L461.434 68.5251C485.256 74.2067 502.964 95.4666 502.964 120.841C502.964 131.486 499.836 141.402 494.459 149.756C531.962 154.36 561 186.061 561 224.511C561 266.128 524.642 286.135 485.038 299.865C450.556 311.819 322.155 349.706 322.155 349.706C272.116 358.858 205.767 318.175 196.541 268.537C190.6 236.563 202.231 205.427 224.624 184.86Z" fill="#008282"/>
<path fill-rule="evenodd" clip-rule="evenodd" d="M716 211.919C742.166 199.529 773.118 204.713 773.118 204.713C773.118 204.713 818.807 198.226 820.68 205.313C824.719 220.581 789.145 235 789.145 235L716 211.919Z" fill="#5A2E24"/>
<path fill-rule="evenodd" clip-rule="evenodd" d="M757.872 250.225C799.467 249.768 822.439 232.651 825.737 217.993C827.371 210.723 821.034 205.709 816.66 213.759C812.909 220.66 801.575 228.543 800.454 228.429C806.174 223.608 813.528 216.547 815.49 210.683C818.824 200.718 817.357 190.271 810.637 187.53C807.98 186.446 806.337 189.472 806.337 189.472C806.337 189.472 805.585 180.568 799.619 181.016C791.558 181.622 791.452 192.668 791.452 192.668C791.452 192.668 792.838 183.639 785.346 184.252C780.029 184.687 778.791 193.17 776.095 201.228C772.76 211.193 749.948 213.33 745.739 211.638C741.53 209.948 723.485 205.402 711.411 216.175C688.441 236.672 659 345.978 659 345.978L725.89 395L757.872 250.225Z" fill="#C28160"/>
<path fill-rule="evenodd" clip-rule="evenodd" d="M164.599 365.201C202.135 337.978 278.751 251.079 329.615 246.6C341.985 242.435 365.835 235.101 393.419 230.195C432.14 223.307 476.429 224.309 483.678 224.53C483.715 224.526 483.744 224.516 483.782 224.511C544.87 213.873 640.572 372.921 640.572 372.921C640.572 372.921 658.468 299.264 677.171 281.324C677.171 281.324 669.816 266.163 675.284 263.372C680.75 260.578 747.899 276.411 758.072 281.688C767.518 286.584 751.087 302.859 751.087 302.859C751.087 302.859 742.974 422.959 693.786 466.675C636.523 517.567 598.059 478.43 547.869 408.529C547.004 461.227 536.415 547.527 510.659 550.568C464.555 556.01 362.511 556.454 313.728 551.823C297.104 550.245 280.861 468.176 275.44 424.468C222.715 467.657 158.45 495.671 136.565 483.986C110.259 469.94 119.577 397.851 164.599 365.201Z" fill="#FF8548"/>
<path fill-rule="evenodd" clip-rule="evenodd" d="M548.499 410C548.945 410 549.343 409.684 549.428 409.232C561.153 346.548 529.011 305.756 528.684 305.353C528.358 304.944 527.762 304.884 527.356 305.206C526.947 305.53 526.881 306.123 527.208 306.53C527.528 306.929 559.128 347.089 547.568 408.885C547.471 409.398 547.812 409.891 548.325 409.983C548.383 409.994 548.442 410 548.499 410Z" fill="#D56E3A"/>
<path fill-rule="evenodd" clip-rule="evenodd" d="M274.946 426C275.153 426 275.361 425.934 275.535 425.791C285.034 418.195 289.69 409.762 289.883 409.406C290.135 408.947 289.966 408.369 289.508 408.118C289.051 407.864 288.473 408.035 288.224 408.494C288.176 408.578 283.541 416.962 274.356 424.307C273.947 424.634 273.881 425.231 274.206 425.641C274.392 425.877 274.668 426 274.946 426Z" fill="#D56E3A"/>
<path fill-rule="evenodd" clip-rule="evenodd" d="M174.795 359C174.795 359 186.236 417.385 178.047 433.799C169.856 450.215 161 369.414 161 369.414L174.795 359Z" fill="#D56E3A"/>
<path fill-rule="evenodd" clip-rule="evenodd" d="M642 373.657C642 373.657 630.372 407.228 630.02 417C630.02 417 623.348 378.061 634.256 362L642 373.657Z" fill="#D56E3A"/>
<path fill-rule="evenodd" clip-rule="evenodd" d="M692.466 285.994C692.938 285.994 693.348 285.66 693.415 285.2C693.49 284.693 693.124 284.228 692.6 284.155C689.508 283.736 686.301 283.35 683.064 283.004C682.523 282.958 682.065 283.316 682.006 283.823C681.948 284.329 682.328 284.786 682.855 284.843C686.071 285.185 689.261 285.569 692.332 285.985C692.378 285.993 692.422 285.994 692.466 285.994ZM711.332 289.216C711.773 289.216 712.17 288.92 712.265 288.49C712.38 287.99 712.053 287.497 711.535 287.388C708.516 286.752 705.342 286.152 702.096 285.601C701.575 285.508 701.079 285.847 700.987 286.349C700.895 286.852 701.243 287.331 701.763 287.419C704.983 287.966 708.133 288.563 711.125 289.194C711.194 289.208 711.265 289.216 711.332 289.216ZM729.797 294.106C730.194 294.106 730.566 293.866 730.702 293.483C730.874 293.001 730.608 292.474 730.108 292.31C727.232 291.354 724.129 290.441 720.888 289.589C720.38 289.454 719.851 289.746 719.711 290.238C719.573 290.731 719.874 291.24 720.383 291.373C723.586 292.214 726.648 293.116 729.485 294.056C729.588 294.09 729.694 294.106 729.797 294.106ZM747.041 302C747.317 302 747.59 301.887 747.779 301.667C748.117 301.275 748.061 300.693 747.655 300.366C747.555 300.287 745.124 298.359 739.102 295.723C738.621 295.509 738.053 295.72 737.835 296.184C737.616 296.648 737.829 297.196 738.31 297.405C744.057 299.921 746.407 301.771 746.43 301.787C746.61 301.932 746.827 302 747.041 302Z" fill="#FFAB81"/>
<path fill-rule="evenodd" clip-rule="evenodd" d="M482.856 519L484 513.958L461.144 509L460 514.042L482.856 519Z" fill="#FFAB81"/>
<path fill-rule="evenodd" clip-rule="evenodd" d="M351.857 375L353 369.958L330.144 365L329 370.042L351.857 375Z" fill="#FFAB81"/>
<path fill-rule="evenodd" clip-rule="evenodd" d="M245.857 422L247 416.959L224.144 412L223 417.043L245.857 422Z" fill="#FFAB81"/>
<path fill-rule="evenodd" clip-rule="evenodd" d="M325.857 532L327 526.959L304.143 522L303 527.043L325.857 532Z" fill="#FFAB81"/>
<path fill-rule="evenodd" clip-rule="evenodd" d="M397 379.46L402.504 380L405 356.542L399.494 356L397 379.46Z" fill="#FFAB81"/>
<path fill-rule="evenodd" clip-rule="evenodd" d="M651 405.46L656.504 406L659 382.542L653.496 382L651 405.46Z" fill="#FFAB81"/>
<path fill-rule="evenodd" clip-rule="evenodd" d="M368.081 322L372 318.564L356.921 301L353 304.436L368.081 322Z" fill="#FFAB81"/>
<path fill-rule="evenodd" clip-rule="evenodd" d="M303.136 284L303 289.394L326.864 290L327 284.606L303.136 284Z" fill="#FFAB81"/>
<path fill-rule="evenodd" clip-rule="evenodd" d="M465.471 435L471 434.896L470.529 411L465 411.104L465.471 435Z" fill="#FFAB81"/>
<path fill-rule="evenodd" clip-rule="evenodd" d="M514 491.865L518.218 495L532 476.135L527.782 473L514 491.865Z" fill="#FFAB81"/>
<path fill-rule="evenodd" clip-rule="evenodd" d="M696 330.239L697.5 335L720 328.759L718.5 324L696 330.239Z" fill="#FFAB81"/>
<path fill-rule="evenodd" clip-rule="evenodd" d="M392 525.865L396.22 529L410 510.133L405.782 507L392 525.865Z" fill="#FFAB81"/>
<path fill-rule="evenodd" clip-rule="evenodd" d="M443.667 476L447 471.788L428.331 457L425 461.212L443.667 476Z" fill="#FFAB81"/>
<path fill-rule="evenodd" clip-rule="evenodd" d="M461 363.176L464.72 367L481 349.822L477.28 346L461 363.176Z" fill="#FFAB81"/>
<path fill-rule="evenodd" clip-rule="evenodd" d="M579.075 361L578 366.204L600.925 371L602 365.796L579.075 361Z" fill="#FFAB81"/>
<path fill-rule="evenodd" clip-rule="evenodd" d="M423.371 281L422 286.022L444.629 292L446 286.978L423.371 281Z" fill="#FFAB81"/>
<path fill-rule="evenodd" clip-rule="evenodd" d="M270 352.178L273.72 356L290 338.824L286.28 335L270 352.178Z" fill="#FFAB81"/>
<path fill-rule="evenodd" clip-rule="evenodd" d="M531 266.188L534.674 270L548 255.81L544.326 252L531 266.188Z" fill="#FFAB81"/>
<path fill-rule="evenodd" clip-rule="evenodd" d="M302 453.964L306.768 455L311 432.038L306.23 431L302 453.964Z" fill="#FFAB81"/>
<path fill-rule="evenodd" clip-rule="evenodd" d="M195 380.962L199.768 382L204 359.036L199.23 358L195 380.962Z" fill="#FFAB81"/>
<path fill-rule="evenodd" clip-rule="evenodd" d="M420 427.465L419.661 422L396 423.535L396.337 429L420 427.465Z" fill="#FFAB81"/>
<path fill-rule="evenodd" clip-rule="evenodd" d="M720.221 416L724 412.237L706.781 396L703 399.765L720.221 416Z" fill="#FFAB81"/>
<path fill-rule="evenodd" clip-rule="evenodd" d="M524.505 390L527 385.429L505.497 375L503 379.571L524.505 390Z" fill="#FFAB81"/>
<path fill-rule="evenodd" clip-rule="evenodd" d="M655 467.319L654.183 462L631 465.681L631.815 471L655 467.319Z" fill="#FFAB81"/>
<path fill-rule="evenodd" clip-rule="evenodd" d="M503.833 454L508 450.223L502.841 435L498 436.787L503.833 454Z" fill="#FFAB81"/>
<path fill-rule="evenodd" clip-rule="evenodd" d="M526.464 341L531 338.481L520.536 317L516 319.519L526.464 341Z" fill="#FFAB81"/>
<path fill-rule="evenodd" clip-rule="evenodd" d="M349.463 493L354 490.481L343.537 469L339 471.521L349.463 493Z" fill="#FFAB81"/>
<path fill-rule="evenodd" clip-rule="evenodd" d="M588.464 441L593 438.481L582.536 417L578 419.519L588.464 441Z" fill="#FFAB81"/>
<path fill-rule="evenodd" clip-rule="evenodd" d="M537.417 435L537 440.212L546.568 444L547 438.423L537.417 435Z" fill="#FFAB81"/>
<path fill-rule="evenodd" clip-rule="evenodd" d="M486.628 121.048C488.259 127.47 484.373 133.999 477.951 135.628C471.53 137.259 465.001 133.375 463.372 126.953C461.741 120.529 465.625 114.002 472.049 112.371C478.47 110.742 484.997 114.624 486.628 121.048Z" fill="#FEC600"/>
<path fill-rule="evenodd" clip-rule="evenodd" d="M367.712 236.816L364.921 153L429.881 167.79L438.273 226.305C438.273 226.305 450.959 225.722 468 225.391C431.938 274.966 359.825 261.836 342 243.878C350.982 240.757 367.712 236.816 367.712 236.816Z" fill="#C28160"/>
<path fill-rule="evenodd" clip-rule="evenodd" d="M380 176.134C380 176.134 403.03 215.355 435 199.019L430.319 167L380 176.134Z" fill="#5A2E24"/>
<path fill-rule="evenodd" clip-rule="evenodd" d="M476.599 95.0588C487.128 136.266 462.041 178.154 420.564 188.615C379.087 199.076 336.93 174.149 326.401 132.939C315.872 91.7319 340.959 49.8443 382.436 39.3851C423.913 28.924 466.07 53.8494 476.599 95.0588Z" fill="#C28160"/>
<path fill-rule="evenodd" clip-rule="evenodd" d="M390.814 101.524C391.63 104.735 389.685 108 386.476 108.814C383.265 109.63 380.001 107.688 379.185 104.477C378.372 101.266 380.313 98.0011 383.523 97.1854C386.734 96.3716 389.999 98.3127 390.814 101.524Z" fill="#0C0F18"/>
<path fill-rule="evenodd" clip-rule="evenodd" d="M421.739 122C421.812 122 421.885 121.991 421.959 121.97C425.531 121.007 427.7 117.142 426.794 113.349C425.885 109.559 422.243 107.257 418.669 108.218C418.196 108.346 417.907 108.858 418.027 109.361C418.15 109.863 418.635 110.162 419.105 110.042C421.722 109.333 424.408 111.027 425.076 113.812C425.742 116.598 424.147 119.441 421.521 120.148C421.048 120.276 420.761 120.787 420.882 121.291C420.983 121.716 421.344 122 421.739 122Z" fill="#6B2F2B"/>
<path fill-rule="evenodd" clip-rule="evenodd" d="M450.815 86.524C451.628 89.7354 449.687 93 446.476 93.8139C443.265 94.6296 440.001 92.6884 439.185 89.477C438.372 86.2656 440.314 83.001 443.524 82.1853C446.735 81.3714 449.999 83.3144 450.815 86.524Z" fill="#0C0F18"/>
<path fill-rule="evenodd" clip-rule="evenodd" d="M430.038 158C430.26 158 430.483 157.924 430.664 157.771C431.068 157.431 431.114 156.835 430.768 156.439C430.626 156.277 416.322 140.332 389.622 150.246C389.124 150.431 388.874 150.976 389.063 151.464C389.251 151.954 389.803 152.2 390.301 152.015C415.698 142.586 428.765 157.052 429.311 157.673C429.499 157.888 429.768 158 430.038 158Z" fill="#6B2F2B"/>
<path fill-rule="evenodd" clip-rule="evenodd" d="M381 39C381 39 374.309 108.226 323.456 119C323.456 119 302.852 52.2444 381 39Z" fill="#008282"/>
<path fill-rule="evenodd" clip-rule="evenodd" d="M381 39.4816C381 39.4816 415.037 79.151 458 61.4523C458 61.4523 432.309 16.6553 381 39.4816Z" fill="#008282"/>
<path fill-rule="evenodd" clip-rule="evenodd" d="M406.851 97C407.878 97 408.87 96.4646 409.38 95.5309C409.777 94.8164 411.18 92.896 412.912 92.5378C413.291 92.4611 414.453 92.2217 416.405 93.6726C417.651 94.5972 419.442 94.3761 420.406 93.1774C421.368 91.9787 421.138 90.2574 419.89 89.3328C416.521 86.8313 413.555 86.7856 411.663 87.1895C407.039 88.1725 404.585 92.5068 404.32 92.9965C403.596 94.3413 404.142 95.995 405.541 96.6912C405.961 96.9013 406.41 97 406.851 97Z" fill="#FFFFFE"/>
<path fill-rule="evenodd" clip-rule="evenodd" d="M332.829 128C333.282 128 333.742 127.889 334.17 127.657L362.518 112.313C363.891 111.568 364.401 109.854 363.659 108.482C362.917 107.111 361.203 106.598 359.829 107.34L331.482 122.687C330.109 123.429 329.599 125.144 330.341 126.517C330.853 127.461 331.825 128 332.829 128Z" fill="#FFFFFE"/>
<path fill-rule="evenodd" clip-rule="evenodd" d="M384.493 81.7518C394.204 81.7518 403.076 88.3139 405.571 98.1494C407.001 103.78 406.152 109.629 403.182 114.622C400.212 119.614 395.475 123.15 389.845 124.58C378.227 127.531 366.369 120.475 363.42 108.851C360.469 97.2295 367.525 85.3721 379.145 82.4226C380.933 81.9684 382.728 81.7518 384.493 81.7518ZM384.499 131C386.731 131 388.998 130.726 391.261 130.153C398.378 128.346 404.366 123.874 408.122 117.563C411.877 111.251 412.95 103.853 411.144 96.735C407.413 82.0393 392.428 73.1161 377.731 76.8495C363.039 80.579 354.119 95.5717 357.848 110.267C361.004 122.7 372.221 131 384.499 131Z" fill="#FFFFFE"/>
<path fill-rule="evenodd" clip-rule="evenodd" d="M444.497 65.7499C454.21 65.7499 463.083 72.3139 465.579 82.1475C468.53 93.771 461.474 105.626 449.85 108.578C438.231 111.529 426.373 104.473 423.422 92.8492C420.471 81.2275 427.527 69.3702 439.149 66.4207C440.937 65.9665 442.732 65.7499 444.497 65.7499ZM444.503 115C446.736 115 449.003 114.724 451.266 114.151C465.962 110.42 474.881 95.4288 471.152 80.7331C467.422 66.0374 452.434 57.12 437.734 60.8476C423.039 64.5771 414.117 79.5679 417.849 94.2655C421.005 106.698 432.224 115 444.503 115Z" fill="#FFFFFE"/>
<path fill-rule="evenodd" clip-rule="evenodd" d="M340 153.125C340 153.125 336.837 162.305 318.063 163.862C283.052 166.764 284.21 123.112 302.923 115.491C321.635 107.869 339.789 131.949 339.789 131.949L340 153.125Z" fill="#C28160"/>
<path fill-rule="evenodd" clip-rule="evenodd" d="M328.051 141C328.4 141 328.736 140.812 328.901 140.489C329.134 140.034 328.942 139.483 328.472 139.257L307.37 129.097C306.902 128.869 306.335 129.057 306.099 129.511C305.866 129.965 306.058 130.519 306.528 130.743L327.63 140.904C327.765 140.969 327.909 141 328.051 141Z" fill="#6B2F2B"/>
<path fill-rule="evenodd" clip-rule="evenodd" d="M329.629 161.049C331.258 167.47 327.374 173.997 320.951 175.628C314.529 177.259 308.003 173.373 306.372 166.951C304.741 160.53 308.627 154.001 315.048 152.372C321.469 150.741 327.998 154.625 329.629 161.049Z" fill="#FEC600"/>
<path fill-rule="evenodd" clip-rule="evenodd" d="M408 43C409.083 47.8841 412.973 58.304 415.642 60.8327C417.831 62.9081 443.253 69.3016 456.263 60.4028C469.272 51.504 470.999 44.7136 470.999 44.7136C471.179 43.3112 443.276 48.6719 408 43Z" fill="#543525"/>
<path fill-rule="evenodd" clip-rule="evenodd" d="M383 56.5795C379.385 53.3862 370.41 47.471 366.85 47.0109C363.926 46.6345 339.958 56.0578 334.535 70.3679C329.112 84.6779 331.543 90.9489 331.543 90.9489C332.189 92.1431 351.537 72.1508 383 56.5795Z" fill="#543525"/>
<path fill-rule="evenodd" clip-rule="evenodd" d="M216 840.934C220.678 776.487 219.121 668.487 323.495 576.639C323.495 576.639 295.468 563.404 304.236 553.492C312.625 544.009 360.725 553.631 413.479 553.492C459.188 553.372 509.942 541.6 522.412 556.659C530.447 566.359 508.933 576.639 508.933 576.639C576.294 625.939 626.287 777.197 637 840.934L433.984 840.972L415.42 761.74L417.64 841L216 840.934Z" fill="#15CAB8"/>
<path fill-rule="evenodd" clip-rule="evenodd" d="M249.612 680C258.074 680 284.515 670.318 341.86 576.443C342.133 575.999 341.994 575.414 341.549 575.143C341.106 574.863 340.526 575.007 340.254 575.454C271.045 688.751 247.633 677.845 247.399 677.726C246.948 677.48 246.375 677.643 246.123 678.089C245.872 678.537 246.015 679.101 246.458 679.364C246.641 679.472 247.64 680 249.612 680Z" fill="#EEA22D"/>
<path fill-rule="evenodd" clip-rule="evenodd" d="M571.666 684C580.644 684 586.15 681.2 586.498 681.017C586.956 680.776 587.133 680.211 586.892 679.754C586.651 679.299 586.078 679.12 585.62 679.361C585.496 679.425 572.902 685.782 554.755 678.846C535.333 671.426 506.569 647.492 479.827 575.613C479.646 575.127 479.104 574.878 478.616 575.059C478.129 575.237 477.879 575.776 478.058 576.259C505.073 648.867 534.352 673.09 554.158 680.624C560.843 683.167 566.771 684 571.666 684Z" fill="#EEA22D"/>
<path fill-rule="evenodd" clip-rule="evenodd" d="M409.69 674C409.72 674 409.752 673.998 409.784 673.994C415.689 673.405 420.55 670.553 424.231 665.518C441.227 642.274 428.383 580.009 427.828 577.369C427.723 576.86 427.226 576.543 426.718 576.644C426.212 576.749 425.888 577.248 425.995 577.753C426.128 578.393 439.221 641.843 422.718 664.409C419.553 668.74 415.442 671.296 410.491 672.02L396.865 575.802C396.792 575.291 396.316 574.95 395.806 575.006C395.293 575.079 394.936 575.554 395.01 576.066L408.762 673.195C408.828 673.662 409.229 674 409.69 674Z" fill="#EEA22D"/>
<path fill-rule="evenodd" clip-rule="evenodd" d="M328.941 577H504.059C504.578 577 505 576.552 505 576C505 575.446 504.578 575 504.059 575H328.941C328.42 575 328 575.446 328 576C328 576.552 328.42 577 328.941 577Z" fill="#EEA22D"/>
<path fill-rule="evenodd" clip-rule="evenodd" d="M416.018 764C416.12 764 416.223 763.982 416.321 763.945L432.363 757.999C432.853 757.817 433.116 757.235 432.951 756.697C432.784 756.157 432.252 755.876 431.759 756.053L415.988 761.899L396.184 756.036C395.683 755.89 395.167 756.211 395.033 756.757C394.896 757.305 395.193 757.868 395.692 758.016L415.773 763.963C415.853 763.988 415.936 764 416.018 764Z" fill="#EEA22D"/>
<path fill-rule="evenodd" clip-rule="evenodd" d="M109 253.243C85.0906 237.403 54.2102 238.62 54.2102 238.62C54.2102 238.62 10.4765 226.194 7.71862 233.078C1.7798 247.907 34.6022 267 34.6022 267L109 253.243Z" fill="#5A2E24"/>
<path fill-rule="evenodd" clip-rule="evenodd" d="M63.1812 286.229C21.9428 280.401 1.38895 260.436 0.0446014 245.456C-0.620926 238.028 6.33209 233.869 9.61426 242.425C12.43 249.762 22.6443 259.054 23.7725 259.084C18.727 253.56 12.356 245.597 11.1804 239.523C9.18193 229.197 12.0147 219.013 19.0474 217.161C21.8271 216.429 23.0615 219.644 23.0615 219.644C23.0615 219.644 24.9803 210.901 30.845 212.116C38.7688 213.759 37.4188 224.74 37.4188 224.74C37.4188 224.74 37.2311 215.595 44.5899 217.172C49.8118 218.294 49.9236 226.876 51.5391 235.225C53.5376 245.55 75.9079 250.618 80.3088 249.484C84.7115 248.349 103.225 246.165 113.794 258.423C133.902 281.742 163 405.245 163 405.245L91.3953 424L63.1812 286.229Z" fill="#C28160"/>
<path fill-rule="evenodd" clip-rule="evenodd" d="M34.07 255C34.3729 255 34.6703 254.85 34.8506 254.574C35.1294 254.139 35.0067 253.559 34.5773 253.276C28.4347 249.246 23.6618 241.865 22.2344 237.91C20.991 234.464 23.0503 223.196 23.948 219.143C24.0595 218.639 23.7454 218.136 23.2436 218.023C22.7381 217.909 22.2455 218.23 22.134 218.734C21.9983 219.35 18.8053 233.888 20.4892 238.552C22.2567 243.454 27.4403 250.833 33.5644 254.85C33.7205 254.951 33.8952 255 34.07 255Z" fill="#6B2F2B"/>
<path fill-rule="evenodd" clip-rule="evenodd" d="M50.0825 253C50.383 253 50.6763 252.847 50.8522 252.566C51.1271 252.122 51.008 251.529 50.5828 251.242C44.5261 247.134 39.8218 239.609 38.4125 235.578C36.9446 231.368 38.7149 224.272 38.7332 224.201C38.8615 223.69 38.5701 223.166 38.0808 223.032C37.5897 222.897 37.0912 223.201 36.9611 223.711C36.8823 224.025 35.0258 231.456 36.6917 236.232C38.4363 241.229 43.5474 248.752 49.584 252.845C49.738 252.95 49.9121 253 50.0825 253Z" fill="#6B2F2B"/>
<path fill-rule="evenodd" clip-rule="evenodd" d="M61.7315 332.011C61.7315 332.011 90.4572 486.407 147.02 488.94C234.85 492.871 134.254 302.681 134.254 302.681C134.254 302.681 141.239 288.684 137.787 286.251C123.696 276.316 67.1601 301.589 50.8743 316.848C46.2095 321.219 61.7315 332.011 61.7315 332.011Z" fill="#FF8548"/>
<path fill-rule="evenodd" clip-rule="evenodd" d="M125.006 305C125.059 305 125.113 304.996 125.168 304.987C128.255 304.431 130.071 304.239 130.087 304.237C130.641 304.178 131.048 303.632 130.995 303.017C130.943 302.401 130.455 301.937 129.897 302.007C129.821 302.016 128.005 302.211 124.847 302.777C124.297 302.875 123.924 303.449 124.013 304.06C124.092 304.61 124.521 305 125.006 305Z" fill="#FFAB81"/>
<path fill-rule="evenodd" clip-rule="evenodd" d="M107.463 309.061C107.549 309.061 107.637 309.05 107.725 309.025C110.549 308.213 113.426 307.475 116.272 306.832C116.777 306.719 117.091 306.222 116.977 305.723C116.863 305.224 116.362 304.905 115.86 305.026C112.975 305.676 110.063 306.422 107.203 307.243C106.708 307.386 106.423 307.9 106.566 308.393C106.684 308.797 107.058 309.061 107.463 309.061ZM90.7299 314.963C90.8532 314.963 90.9783 314.939 91.0979 314.889C93.756 313.761 96.5206 312.692 99.3188 311.707C99.8045 311.534 100.06 311.006 99.8866 310.524C99.7148 310.04 99.1806 309.788 98.6949 309.958C95.8593 310.956 93.0555 312.041 90.3638 313.183C89.8893 313.383 89.6689 313.928 89.8706 314.399C90.0219 314.752 90.3694 314.963 90.7299 314.963ZM74.9344 323C75.1006 323 75.2688 322.957 75.4201 322.865C77.8783 321.376 80.4673 319.94 83.1123 318.598C83.5719 318.364 83.7531 317.806 83.5196 317.35C83.2842 316.895 82.7201 316.716 82.2624 316.945C79.5763 318.31 76.9462 319.768 74.4487 321.281C74.0079 321.548 73.8678 322.119 74.1368 322.555C74.3124 322.842 74.6206 323 74.9344 323Z" fill="#FFAB81"/>
<path fill-rule="evenodd" clip-rule="evenodd" d="M64.0065 331C64.2299 331 64.4532 330.929 64.6384 330.782C65.9382 329.748 67.2562 328.751 68.5883 327.79C69.037 327.467 69.1336 326.847 68.8056 326.405C68.4796 325.964 67.8518 325.868 67.3991 326.191C66.0429 327.17 64.6987 328.187 63.3747 329.239C62.9421 329.583 62.8737 330.207 63.2238 330.631C63.423 330.875 63.7128 331 64.0065 331Z" fill="#FFAB81"/>
<path fill-rule="evenodd" clip-rule="evenodd" d="M112 333.437L107.907 330L93 348.563L97.0932 352L112 333.437Z" fill="#FFAB81"/>
<path fill-rule="evenodd" clip-rule="evenodd" d="M97 419.373L99.2515 424L121 414.629L118.748 410L97 419.373Z" fill="#FFAB81"/>
<path fill-rule="evenodd" clip-rule="evenodd" d="M152.453 387L157 384.176L144.547 364L140 366.824L152.453 387Z" fill="#FFAB81"/>
<path fill-rule="evenodd" clip-rule="evenodd" d="M141.753 454L140 458.708L162.247 466L164 461.292L141.753 454Z" fill="#FFAB81"/>
<path fill-rule="evenodd" clip-rule="evenodd" d="M337.941 240.08C339.432 239.584 341.044 240.379 341.543 241.856C341.799 242.61 365.772 311.943 410.914 320.678C412.475 316.082 416.849 312.769 422.013 312.769C426.8 312.769 430.913 315.619 432.73 319.7C473.128 306.386 471.299 226.772 471.273 225.902C471.229 224.345 472.464 223.045 474.035 223.002C475.577 222.944 476.914 224.179 476.962 225.736C477.075 229.51 478.957 311.964 433.68 325.379C433.17 331.327 428.145 336 422.013 336C416.221 336 411.424 331.833 410.476 326.359C361.754 317.688 337.243 246.886 336.148 243.65C335.649 242.173 336.452 240.575 337.941 240.08Z" fill="#FEC600"/>
<path fill-rule="evenodd" clip-rule="evenodd" d="M118.459 139.465C103.554 122.079 87.6893 134.573 70.7981 138.167C54.7167 139.647 44.7866 118.691 58.7144 107.956C72.7951 93.387 78.2726 103.568 91.8588 106.039C107.134 105.408 118.652 71.1252 101.119 67.0096C64.5241 44.9153 12.0499 78.4654 13.0842 120.064C10.7758 160.877 56.4117 188.935 90.5074 169.366C98.5235 179.839 108.405 175.669 116.647 166.727C126.87 158.182 129.042 148.097 118.459 139.465ZM150.416 170.843C139.354 167.777 121.279 185.437 120.481 196.377C120.796 206.314 139.956 228.717 152.438 221.643C164.501 214.802 183.219 196.853 166.132 183.032C160.615 177.643 157.515 173.037 150.416 170.843Z" fill="#44A6E9"/>
<path fill-rule="evenodd" clip-rule="evenodd" d="M651.346 90.0963C639.569 109.68 656.323 120.784 664.989 135.659C671.406 150.43 654.702 166.422 640.212 156.597C622.053 147.832 629.963 139.447 628.06 125.798C625.036 113.5 594.288 112.528 590.475 121.809C573.152 164.896 624.098 211.299 665.89 196.026C705.176 185.393 717.45 133.342 688.324 107.186C695.718 96.3028 688.695 88.2504 677.673 83.2494C666.41 76.2481 656.202 77.3594 651.346 90.0963ZM671.027 49.9624C671.582 61.4071 693.907 72.9838 704.493 70.3034C713.786 66.8828 728.977 41.6952 718.398 32.0907C708.171 22.8102 685.371 10.7137 677.641 31.245C674.27 38.1654 670.885 42.5485 671.027 49.9624Z" fill="#44A6E9"/>
</svg>
