<?xml version="1.0" encoding="UTF-8" standalone="no"?>
<svg
   width="184"
   height="152"
   version="1.1"
   id="svg24"
   sodipodi:docname="empty_dark.svg"
   inkscape:version="1.2.2 (732a01da63, 2022-12-09)"
   xmlns:inkscape="http://www.inkscape.org/namespaces/inkscape"
   xmlns:sodipodi="http://sodipodi.sourceforge.net/DTD/sodipodi-0.dtd"
   xmlns="http://www.w3.org/2000/svg"
   xmlns:svg="http://www.w3.org/2000/svg">
  <defs
     id="defs28" />
  <sodipodi:namedview
     id="namedview26"
     pagecolor="#ffffff"
     bordercolor="#666666"
     borderopacity="1.0"
     inkscape:showpageshadow="2"
     inkscape:pageopacity="0.0"
     inkscape:pagecheckerboard="0"
     inkscape:deskcolor="#d1d1d1"
     showgrid="false"
     inkscape:zoom="6.7565789"
     inkscape:cx="92.132425"
     inkscape:cy="76"
     inkscape:window-width="2560"
     inkscape:window-height="1411"
     inkscape:window-x="-9"
     inkscape:window-y="86"
     inkscape:window-maximized="1"
     inkscape:current-layer="g22" />
  <g
     fill="none"
     fill-rule="evenodd"
     id="g22">
    <g
       transform="translate(24 31.67)"
       id="g12">
      <ellipse
         fill-opacity=".8"
         fill="#F5F5F7"
         cx="67.797"
         cy="106.89"
         rx="67.797"
         ry="12.668"
         style="fill:#1b3838;fill-opacity:0.80000001"
         id="ellipse2" />
      <path
         d="M122.034 69.674 98.109 40.229c-1.148-1.386-2.826-2.225-4.593-2.225h-51.44c-1.766 0-3.444.839-4.592 2.225L13.56 69.674v15.383h108.475V69.674z"
         fill="#AEB8C2"
         style="fill:#273241;fill-opacity:1"
         id="path4" />
      <path
         d="M101.537 86.214 80.63 61.102c-1.001-1.207-2.507-1.867-4.048-1.867H31.724c-1.54 0-3.047.66-4.048 1.867L6.769 86.214v13.792h94.768V86.214z"
         fill="url(#linearGradient-1)"
         transform="translate(13.56)"
         id="path6" />
      <path
         d="M33.83 0h67.933a4 4 0 0 1 4 4v93.344a4 4 0 0 1-4 4H33.83a4 4 0 0 1-4-4V4a4 4 0 0 1 4-4z"
         fill="#F5F5F7"
         style="fill:#ebf0ed;fill-opacity:1"
         id="path8" />
      <path
         d="M42.678 9.953h50.237a2 2 0 0 1 2 2V36.91a2 2 0 0 1-2 2H42.678a2 2 0 0 1-2-2V11.953a2 2 0 0 1 2-2zm.262 39.814h49.713a2.262 2.262 0 1 1 0 4.524H42.94a2.262 2.262 0 0 1 0-4.524zm0 11.763h49.713a2.262 2.262 0 1 1 0 4.525H42.94a2.262 2.262 0 0 1 0-4.525zm78.873 43.502c-.775 3.071-3.497 5.36-6.735 5.36H20.515c-3.238 0-5.96-2.29-6.734-5.36a7.309 7.309 0 0 1-.222-1.79V69.675h26.318c2.907 0 5.25 2.448 5.25 5.42v.04c0 2.971 2.37 5.37 5.277 5.37h34.785c2.907 0 5.277-2.421 5.277-5.393V75.1c0-2.972 2.343-5.426 5.25-5.426h26.318v33.569a7.33 7.33 0 0 1-.221 1.789z"
         fill="#DCE0E6"
         style="fill:#b8b8b8;fill-opacity:1"
         id="path10" />
    </g>
    <path
       d="m149.121 33.292-6.83 2.65a1 1 0 0 1-1.317-1.23l1.937-6.207c-2.589-2.944-4.109-6.534-4.109-10.408C138.802 8.102 148.92 0 161.402 0 173.881 0 184 8.102 184 18.097c0 9.995-10.118 18.097-22.599 18.097-4.528 0-8.744-1.066-12.28-2.902z"
       fill="#DCE0E6"
       style="fill:#1b3838;fill-opacity:1"
       id="path14" />
    <g
       transform="translate(149.65 15.383)"
       fill="#FFF"
       style="fill:#d8e9ff;fill-opacity:1"
       id="g20">
      <ellipse
         cx="20.654"
         cy="3.167"
         rx="2.849"
         ry="2.815"
         style="fill:#ffffff;fill-opacity:1"
         id="ellipse16" />
      <path
         d="M5.698 5.63H0L2.898.704zM9.259.704h4.985V5.63H9.259z"
         style="fill:#ffffff;fill-opacity:1"
         id="path18" />
    </g>
  </g>
</svg>
