<svg width="71" height="70" viewBox="0 0 71 70" fill="none" xmlns="http://www.w3.org/2000/svg">
<rect width="71" height="70" rx="11" fill="#036666"/>
<mask id="mask0_0_96" style="mask-type:luminance" maskUnits="userSpaceOnUse" x="0" y="0" width="71" height="70">
<rect width="71" height="70" rx="11" fill="white"/>
</mask>
<g mask="url(#mask0_0_96)">
<path fill-rule="evenodd" clip-rule="evenodd" d="M59.1407 25.583C29.8164 34.7733 36.5044 50.6371 34.061 55.1694C31.6171 59.7016 36.376 66.5 36.376 66.5C38.8193 53.9106 22.2283 57.9389 61.4552 49.6298C100.683 41.3202 88.8498 -3.5 88.8498 -3.5C88.8498 -3.5 81.6476 14.2519 52.967 16.518C24.2864 18.7842 33.2894 53.7844 33.2894 53.7844C35.8617 43.0829 24.8007 32.0037 53.3528 25.2048C81.905 18.4065 83.4483 8.33464 83.4483 8.33464C83.4483 8.33464 88.464 16.3923 59.1407 25.583Z" fill="#FFFEEC"/>
<path fill-rule="evenodd" clip-rule="evenodd" d="M14.0554 45.3383C30.6913 46.6383 29.1897 56.1249 31.0572 58.2849C32.9243 60.4449 31.2827 64.75 31.2827 64.75C28.3865 58.2006 37.6497 58.2987 15.9041 58.7297C-5.84161 59.1602 -5.32413 33.25 -5.32413 33.25C-5.32413 33.25 0.740397 42.0097 16.1531 39.6202C31.5663 37.2296 31.2869 57.4334 31.2869 57.4334C28.5642 51.9285 32.9825 44.4958 17.0586 44.4009C1.13467 44.3055 -0.964612 39.0142 -0.964612 39.0142C-0.964612 39.0142 -2.58101 44.0372 14.0554 45.3383Z" fill="#FFFEEC"/>
<path fill-rule="evenodd" clip-rule="evenodd" d="M23.9812 26.5798C19.1509 37.3723 25.5627 39.5849 26.2737 41.4647C26.9852 43.344 30.2196 43.75 30.2196 43.75C27.1263 39.7732 24.0472 45.5754 31.687 32.1749C39.3263 18.7748 23.0286 10.5 23.0286 10.5C23.0286 10.5 26.4238 17.1833 19.7117 25.9891C12.9996 34.7955 25.6653 41.325 25.6653 41.325C23.1634 37.8029 17.0407 38.0885 22.3795 28.1395C27.7183 18.1909 25.1377 15.1271 25.1377 15.1271C25.1377 15.1271 28.8109 15.7874 23.9812 26.5798Z" fill="#FFFEEC"/>
</g>
</svg>
