<svg width="70" height="70" viewBox="0 0 70 70" fill="none" xmlns="http://www.w3.org/2000/svg">
<rect width="70" height="70" rx="11" fill="#DEE4DF"/>
<mask id="mask0_0_103" style="mask-type:luminance" maskUnits="userSpaceOnUse" x="0" y="0" width="70" height="70">
<rect width="70" height="70" rx="11" fill="white"/>
</mask>
<g mask="url(#mask0_0_103)">
<path fill-rule="evenodd" clip-rule="evenodd" d="M58.0856 25.2384C29.1493 34.433 35.7488 50.3044 33.3378 54.8388C30.9262 59.3732 35.6221 66.1748 35.6221 66.1748C38.0331 53.5794 21.6617 57.6097 60.3694 49.2966C99.0776 40.983 87.4015 -3.8584 87.4015 -3.8584C87.4015 -3.8584 80.2946 13.9019 51.9935 16.1691C23.6925 18.4363 32.5763 53.4531 32.5763 53.4531C35.1146 42.7466 24.2 31.6622 52.3743 24.86C80.5486 18.0585 82.0714 7.98186 82.0714 7.98186C82.0714 7.98186 87.0208 16.0433 58.0856 25.2384Z" fill="#1B3838"/>
<path fill-rule="evenodd" clip-rule="evenodd" d="M13.5977 45.0031C30.0135 46.3037 28.5318 55.7948 30.3746 57.9558C32.2169 60.1168 30.5971 64.424 30.5971 64.424C27.7392 57.8715 36.8798 57.9696 15.4219 58.4009C-6.03594 58.8316 -5.52531 32.9091 -5.52531 32.9091C-5.52531 32.9091 0.458954 41.673 15.6677 39.2823C30.877 36.8905 30.6012 57.1039 30.6012 57.1039C27.9146 51.5964 32.2743 44.1602 16.5612 44.0652C0.848006 43.9698 -1.22349 38.676 -1.22349 38.676C-1.22349 38.676 -2.8185 43.7014 13.5977 45.0031Z" fill="#1B3838"/>
<path fill-rule="evenodd" clip-rule="evenodd" d="M23.3919 26.2356C18.6255 37.0332 24.9525 39.2468 25.654 41.1276C26.3561 43.0078 29.5478 43.414 29.5478 43.414C26.4954 39.4353 23.4571 45.2402 30.9957 31.8333C38.5339 18.4269 22.4519 10.1482 22.4519 10.1482C22.4519 10.1482 25.8022 16.8346 19.1789 25.6447C12.5556 34.4553 25.0537 40.9878 25.0537 40.9878C22.585 37.464 16.5433 37.7498 21.8114 27.796C27.0796 17.8428 24.5331 14.7775 24.5331 14.7775C24.5331 14.7775 28.1577 15.4381 23.3919 26.2356Z" fill="#1B3838"/>
</g>
</svg>
