<svg width="83" height="22" viewBox="0 0 83 22" fill="none" xmlns="http://www.w3.org/2000/svg">
<path d="M0.868 10.92C0.868 9.70667 1.08267 8.52133 1.512 7.364C1.96 6.188 2.604 5.124 3.444 4.172C4.284 3.20133 5.31067 2.436 6.524 1.876C7.73733 1.29733 9.11867 1.008 10.668 1.008C12.4973 1.008 14.0747 1.40933 15.4 2.212C16.744 3.01467 17.7427 4.06 18.396 5.348L15.428 7.392C15.092 6.64533 14.6533 6.05733 14.112 5.628C13.5707 5.18 12.992 4.872 12.376 4.704C11.76 4.51733 11.1533 4.424 10.556 4.424C9.58533 4.424 8.736 4.62 8.008 5.012C7.29867 5.404 6.70133 5.91733 6.216 6.552C5.73067 7.18667 5.36667 7.896 5.124 8.68C4.9 9.464 4.788 10.248 4.788 11.032C4.788 11.9093 4.928 12.7587 5.208 13.58C5.488 14.3827 5.88 15.1013 6.384 15.736C6.90667 16.352 7.52267 16.8467 8.232 17.22C8.96 17.5747 9.75333 17.752 10.612 17.752C11.228 17.752 11.8533 17.6493 12.488 17.444C13.1227 17.2387 13.7107 16.912 14.252 16.464C14.7933 16.016 15.2133 15.4373 15.512 14.728L18.676 16.548C18.284 17.5373 17.64 18.3773 16.744 19.068C15.8667 19.7587 14.8773 20.2813 13.776 20.636C12.6747 20.9907 11.5827 21.168 10.5 21.168C9.08133 21.168 7.784 20.8787 6.608 20.3C5.432 19.7027 4.41467 18.9187 3.556 17.948C2.716 16.9587 2.05333 15.8573 1.568 14.644C1.10133 13.412 0.868 12.1707 0.868 10.92ZM27.6246 21.28C26.43 21.28 25.3566 21.084 24.4046 20.692C23.4526 20.2813 22.6406 19.7213 21.9686 19.012C21.3153 18.3027 20.8113 17.4907 20.4566 16.576C20.102 15.6613 19.9246 14.7 19.9246 13.692C19.9246 12.6653 20.102 11.6947 20.4566 10.78C20.8113 9.86533 21.3153 9.05333 21.9686 8.344C22.6406 7.63467 23.4526 7.084 24.4046 6.692C25.3566 6.28133 26.43 6.076 27.6246 6.076C28.8193 6.076 29.8833 6.28133 30.8166 6.692C31.7686 7.084 32.5806 7.63467 33.2526 8.344C33.9246 9.05333 34.4286 9.86533 34.7646 10.78C35.1193 11.6947 35.2966 12.6653 35.2966 13.692C35.2966 14.7 35.1193 15.6613 34.7646 16.576C34.4286 17.4907 33.9246 18.3027 33.2526 19.012C32.5993 19.7213 31.7966 20.2813 30.8446 20.692C29.8926 21.084 28.8193 21.28 27.6246 21.28ZM23.7886 13.692C23.7886 14.5507 23.9566 15.316 24.2926 15.988C24.6286 16.6413 25.086 17.1547 25.6646 17.528C26.2433 17.9013 26.8966 18.088 27.6246 18.088C28.334 18.088 28.978 17.9013 29.5566 17.528C30.1353 17.136 30.5926 16.6133 30.9286 15.96C31.2833 15.288 31.4606 14.5227 31.4606 13.664C31.4606 12.824 31.2833 12.068 30.9286 11.396C30.5926 10.724 30.1353 10.2013 29.5566 9.828C28.978 9.45467 28.334 9.268 27.6246 9.268C26.8966 9.268 26.2433 9.464 25.6646 9.856C25.086 10.2293 24.6286 10.752 24.2926 11.424C23.9566 12.0773 23.7886 12.8333 23.7886 13.692ZM60.6211 21H56.8691V12.768C56.8691 11.6107 56.6638 10.7613 56.2531 10.22C55.8611 9.66 55.3104 9.38 54.6011 9.38C53.8731 9.38 53.1731 9.66933 52.5011 10.248C51.8478 10.808 51.3811 11.5453 51.1011 12.46V21H47.3491V12.768C47.3491 11.592 47.1438 10.7333 46.7331 10.192C46.3411 9.65067 45.7904 9.38 45.0811 9.38C44.3531 9.38 43.6531 9.66 42.9811 10.22C42.3278 10.78 41.8611 11.5173 41.5811 12.432V21H37.8291V6.328H41.2171V9.044C41.7771 8.092 42.5238 7.364 43.4571 6.86C44.3904 6.33733 45.4638 6.076 46.6771 6.076C47.8904 6.076 48.8331 6.37467 49.5051 6.972C50.1958 7.56933 50.6344 8.30667 50.8211 9.184C51.4184 8.176 52.1744 7.41067 53.0891 6.888C54.0224 6.34667 55.0678 6.076 56.2251 6.076C57.1398 6.076 57.8771 6.244 58.4371 6.58C59.0158 6.89733 59.4638 7.336 59.7811 7.896C60.0984 8.43733 60.3131 9.05333 60.4251 9.744C60.5558 10.4347 60.6211 11.1347 60.6211 11.844V21ZM67.5896 21L62.1856 6.328H66.0776L69.7736 17.584L73.4976 6.328H77.0536L71.6776 21H67.5896ZM79.0361 21V6.328H82.7881V21H79.0361ZM79.0361 4.284V0.559999H82.7881V4.284H79.0361Z" fill="currentColor"/>
</svg>
