<svg width="40" height="39" viewBox="0 0 40 40" fill="none" xmlns="http://www.w3.org/2000/svg">
<rect width="40" height="39" rx="11" fill="#DEE4DF"/>
<mask id="mask0_213_392" style="mask-type:luminance" maskUnits="userSpaceOnUse" x="0" y="0" width="40" height="40">
<rect width="40" height="40" rx="11" fill="var(--logo-icon)"/>
</mask>
<g mask="url(#mask0_213_392)">
<path fill-rule="evenodd" clip-rule="evenodd" d="M33.3186 14.2534C16.7979 19.3737 20.5657 28.2121 19.1892 30.7372C17.8123 33.2623 20.4934 37.05 20.4934 37.05C21.8699 30.0359 12.5229 32.2803 34.6225 27.6509C56.7224 23.0212 50.0561 -1.95 50.0561 -1.95C50.0561 -1.95 45.9985 7.94035 29.8404 9.20291C13.6824 10.4655 18.7545 29.9656 18.7545 29.9656C20.2037 24.0033 13.9721 17.8306 30.0578 14.0427C46.1435 10.255 47.013 4.64359 47.013 4.64359C47.013 4.64359 49.8388 9.13286 33.3186 14.2534Z" fill="var(--sidebar)"/>
<path fill-rule="evenodd" clip-rule="evenodd" d="M7.91865 25.2599C17.291 25.9842 16.445 31.2696 17.4972 32.473C18.549 33.6764 17.6242 36.075 17.6242 36.075C15.9925 32.4261 21.2112 32.4807 8.96015 32.7209C-3.29094 32.9607 -2.9994 18.525 -2.9994 18.525C-2.9994 18.525 0.417235 23.4054 9.10045 22.0741C17.784 20.7422 17.6265 31.9986 17.6265 31.9986C16.0926 28.9316 18.5818 24.7905 9.61057 24.7376C0.639359 24.6845 -0.543333 21.7365 -0.543333 21.7365C-0.543333 21.7365 -1.45398 24.535 7.91865 25.2599Z" fill="var(--sidebar)"/>
<path fill-rule="evenodd" clip-rule="evenodd" d="M13.5105 14.8088C10.7892 20.8217 14.4015 22.0544 14.8021 23.1018C15.2029 24.1488 17.0252 24.375 17.0252 24.375C15.2824 22.1594 13.5477 25.392 17.8518 17.926C22.1556 10.4603 12.9739 5.85001 12.9739 5.85001C12.9739 5.85001 14.8867 9.57354 11.1052 14.4797C7.32373 19.3861 14.4593 23.0239 14.4593 23.0239C13.0498 21.0616 9.60041 21.2208 12.6082 15.6777C15.616 10.135 14.1621 8.42798 14.1621 8.42798C14.1621 8.42798 16.2315 8.79584 13.5105 14.8088Z" fill="var(--sidebar)"/>
</g>
</svg>
