<?xml version="1.0" encoding="UTF-8" standalone="no"?>
<svg
   width="254.9691"
   height="238.92059"
   viewBox="0 0 254.9691 238.92059"
   fill="none"
   version="1.1"
   id="svg50"
   sodipodi:docname="Image.svg"
   inkscape:version="1.2.2 (732a01da63, 2022-12-09)"
   xmlns:inkscape="http://www.inkscape.org/namespaces/inkscape"
   xmlns:sodipodi="http://sodipodi.sourceforge.net/DTD/sodipodi-0.dtd"
   xmlns="http://www.w3.org/2000/svg"
   xmlns:svg="http://www.w3.org/2000/svg">
  <defs
     id="defs54" />
  <sodipodi:namedview
     id="namedview52"
     pagecolor="#ffffff"
     bordercolor="#666666"
     borderopacity="1.0"
     inkscape:showpageshadow="2"
     inkscape:pageopacity="0.0"
     inkscape:pagecheckerboard="0"
     inkscape:deskcolor="#d1d1d1"
     showgrid="false"
     inkscape:zoom="4.0753968"
     inkscape:cx="167.22298"
     inkscape:cy="81.832522"
     inkscape:window-width="2560"
     inkscape:window-height="1411"
     inkscape:window-x="2551"
     inkscape:window-y="-9"
     inkscape:window-maximized="1"
     inkscape:current-layer="svg50" />
  <path
     fill-rule="evenodd"
     clip-rule="evenodd"
     d="m 1.6444,207.6276 0.9824,-56.283 29.0707,-66.89 65.5843,28.533 28.5193,-65.6212 65.588,28.5322 5.537,-12.75 c 1.369,-1.163 2.602,-2.608 3.368,-4.369 0.604,-1.391 0.702,-2.875 0.373,-4.244 l 0.698,-1.606 0.004,0.002 9.268,-21.3265 c 0.042,-0.0972 0.082,-0.1955 0.118,-0.2939 l 4.861,-11.1933 -6.556,-2.8551 32.937,-12.9796 12.972,32.9536 -6.559,-2.8523 -14.957,34.4281 c -1.219,0.694 -2.231,1.774 -2.833,3.159 -0.764,1.757 -0.979,3.638 -0.899,5.429 l -19.798,45.572 -65.588,-28.529 -28.5192,65.618 -65.5844,-28.53 -33.18789,76.365 z"
     fill="#026c62"
     id="path2" />
  <path
     fill-rule="evenodd"
     clip-rule="evenodd"
     d="m 231.8131,85.5036 c 0,0 -2.03,-3.866 -2.231,-8.293 -0.081,-1.779 0.134,-3.649 0.895,-5.395 0.6,-1.376 1.609,-2.449 2.825,-3.138 0.768,-0.437 1.618,-0.719 2.499,-0.828 l 0.426,0.185 c -0.435,0.333 -0.793,0.778 -1.027,1.315 -1.327,3.043 0.668,6.843 0.668,6.843 0.818,-0.321 1.817,-1.339 2.323,-2.601 0.131,0.494 0.28,0.817 0.28,0.817 l 0.123,-0.217 c 0.047,-0.067 0.101,-0.129 0.161,-0.185 0.119,-0.111 0.258,-0.199 0.402,-0.275 0.367,-0.192 0.763,-0.312 1.115,-0.537 0.448,-0.288 0.826,-0.705 1.06,-1.187 0.07,-0.145 0.128,-0.296 0.17,-0.452 0.106,-0.387 0.14,-0.791 0.102,-1.189 l 0.433,0.187 c 0.437,0.601 0.773,1.274 0.99,1.986 0.364,1.195 0.386,2.485 0.056,3.69 -0.085,0.311 -0.2,0.613 -0.341,0.904 -0.468,0.964 -1.223,1.798 -2.121,2.373 -0.702,0.45 -1.495,0.691 -2.228,1.075 -0.289,0.151 -0.567,0.327 -0.805,0.55 -0.119,0.112 -0.229,0.236 -0.323,0.369 -0.042,0.059 -0.276,0.365 -0.246,0.434 -0.012,-0.026 -0.302,-0.664 -0.561,-1.633 -1.01,2.524 -3.009,4.56 -4.645,5.202 z"
     fill="#012724"
     id="path4" />
  <path
     fill-rule="evenodd"
     clip-rule="evenodd"
     d="m 235.7881,75.9576 c 0,0 -1.996,-3.726 -0.671,-6.71 0.234,-0.526 0.592,-0.962 1.027,-1.288 l 5.378,2.288 c 0.038,0.39 0.005,0.787 -0.101,1.166 -0.042,0.153 -0.1,0.3 -0.17,0.443 -0.234,0.472 -0.612,0.881 -1.06,1.163 -0.351,0.22 -0.748,0.338 -1.114,0.527 -0.144,0.073 -0.283,0.16 -0.403,0.269 -0.059,0.055 -0.113,0.115 -0.161,0.181 l -0.122,0.213 c 0,0 -0.149,-0.317 -0.281,-0.801 -0.505,1.237 -1.504,2.234 -2.322,2.549 z"
     fill="#554187"
     id="path6" />
  <path
     fill-rule="evenodd"
     clip-rule="evenodd"
     d="m 243.5041,71.1766 5.944,-13.047 z m -9.556,-4.22 9.316,-21.1365 c 0.896,-2.0336 2.926,-3.2347 5.042,-3.1978 0.637,0.0112 1.281,0.1342 1.905,0.3806 -0.53,-0.2096 -1.076,-0.3298 -1.622,-0.3666 1.625,1.4903 2.207,3.8901 1.271,6.0133 l -7.882,17.885 -6.597,-2.83 z m 16.921,-11.593 2.375,-5.104 z m 2.62,-5.155 c 1.241,-2.6401 -0.046,-5.7132 -2.872,-6.9107 2.827,1.1981 4.113,4.2695 2.872,6.9107 z"
     fill="#554187"
     id="path8" />
  <path
     fill-rule="evenodd"
     clip-rule="evenodd"
     d="m 245.2811,68.1266 -3.461,-1.407 4.391,-9.44 -2.891,6.215 3.461,1.407 0.817,-1.756 z m 5.377,-12.776 -3.25,-1.448 2.123,-5.005 c 0.924,-2.1779 0.352,-4.6389 -1.249,-6.1662 0.538,0.0373 1.076,0.1602 1.599,0.3748 v 0 c 0.004,0.0018 0.009,0.0036 0.013,0.0054 0,0 0.001,6e-4 0.001,6e-4 0.004,0.0019 0.008,0.0031 0.012,0.0049 10e-4,6e-4 10e-4,6e-4 0.002,6e-4 0.012,0.0049 0.023,0.0097 0.035,0.0146 0.002,6e-4 0.003,0.0018 0.004,0.0024 0.003,0.0012 0.006,0.0019 0.008,0.0031 0.003,0.0012 0.005,0.0024 0.008,0.003 0.002,0.0012 0.004,0.0024 0.006,0.003 0.003,0.0012 0.005,0.0024 0.008,0.0037 0.002,6e-4 0.005,0.0018 0.007,0.0024 0.003,0.0012 0.006,0.003 0.008,0.0042 0.002,6e-4 0.004,0.0013 0.006,0.0024 0.003,0.0013 0.006,0.0025 0.01,0.0043 0.001,6e-4 0.003,0.0012 0.005,0.0018 0.005,0.0024 0.009,0.0043 0.014,0.0067 0.032,0.0139 0.063,0.0284 0.094,0.0429 2.625,1.2321 3.816,4.4047 2.658,7.1344 z"
     fill="#036666"
     id="path10" />
  <path
     fill-rule="evenodd"
     clip-rule="evenodd"
     d="m 243.8871,71.3946 -3.209,-1.396 1.395,-3.209 3.209,1.395 z"
     fill="#012724"
     id="path12" />
  <path
     fill-rule="evenodd"
     clip-rule="evenodd"
     d="m 246.7221,64.8846 -3.288,-1.445 4.291,-9.972 3.288,1.445 z"
     fill="#012724"
     id="path14" />
  <path
     fill-rule="evenodd"
     clip-rule="evenodd"
     d="m 189.2611,66.8796 c -0.641,-1.632 -0.512,-4.478 0.643,-6.938 -0.882,0.473 -1.544,0.697 -1.571,0.706 0.07,-0.025 0.135,-0.405 0.15,-0.476 0.033,-0.16 0.049,-0.324 0.049,-0.487 0.002,-0.326 -0.058,-0.649 -0.144,-0.962 -0.217,-0.797 -0.579,-1.54 -0.727,-2.359 -0.189,-1.046 -0.093,-2.166 0.292,-3.165 0.117,-0.301 0.259,-0.591 0.429,-0.866 0.655,-1.062 1.609,-1.926 2.728,-2.476 0.666,-0.327 1.386,-0.541 2.12,-0.632 l 0.43,0.187 c -0.316,0.245 -0.588,0.545 -0.799,0.886 -0.084,0.137 -0.156,0.282 -0.213,0.433 -0.193,0.499 -0.241,1.059 -0.147,1.582 0.074,0.41 0.255,0.781 0.364,1.18 0.043,0.156 0.073,0.318 0.072,0.481 -10e-4,0.082 -0.008,0.163 -0.025,0.243 l -0.075,0.238 c 0,0 0.335,-0.111 0.786,-0.352 -0.578,1.229 -0.642,2.652 -0.322,3.468 0,0 4.124,-1.136 5.444,-4.181 0.232,-0.537 0.314,-1.102 0.262,-1.646 l 0.423,0.185 c 0.515,0.712 0.884,1.52 1.088,2.372 0.326,1.36 0.229,2.834 -0.37,4.216 -0.759,1.751 -1.982,3.187 -3.339,4.343 -3.362,2.866 -7.548,4.02 -7.548,4.02 z"
     fill="#012724"
     id="path16" />
  <path
     fill-rule="evenodd"
     clip-rule="evenodd"
     d="m 192.9691,57.4466 c -0.335,-0.8 -0.27,-2.195 0.331,-3.4 -0.469,0.236 -0.819,0.345 -0.819,0.345 l 0.078,-0.233 c 0.018,-0.078 0.025,-0.159 0.026,-0.238 10e-4,-0.16 -0.031,-0.319 -0.076,-0.472 -0.114,-0.391 -0.303,-0.755 -0.381,-1.157 -0.099,-0.513 -0.049,-1.062 0.151,-1.551 0.06,-0.148 0.135,-0.29 0.223,-0.424 0.219,-0.334 0.503,-0.628 0.832,-0.868 l 4.491,1.845 1.091,0.447 c 0.055,0.534 -0.029,1.087 -0.272,1.614 -1.374,2.983 -5.675,4.092 -5.675,4.092 z"
     fill="#554187"
     id="path18" />
  <path
     fill-rule="evenodd"
     clip-rule="evenodd"
     d="m 191.3561,48.4473 6.385,-14.4865 -3.519,7.9832 3.299,1.415 4.299,-9.7555 -3.298,-1.4149 2.15,-4.8775 c 0.896,-2.0336 2.926,-3.2347 5.042,-3.1977 0.637,0.0111 1.281,0.1341 1.904,0.3799 -0.529,-0.209 -1.075,-0.3292 -1.621,-0.3659 1.625,1.4902 2.207,3.89 1.271,6.0131 l -7.882,17.8846 -6.596,-2.8294 z m 19.554,-16.7471 c 1.219,-2.6566 -0.073,-5.7531 -2.885,-6.9112 2.713,1.1172 4.01,4.034 3.006,6.6237 -0.037,0.0963 -0.078,0.1925 -0.121,0.2875 z"
     fill="#554187"
     id="path20" />
  <path
     fill-rule="evenodd"
     clip-rule="evenodd"
     d="m 197.2171,43.6433 -3.289,-1.4447 4.292,-9.9725 3.288,1.4448 z"
     fill="#554187"
     id="path22" />
  <path
     fill-rule="evenodd"
     clip-rule="evenodd"
     d="m 248.0381,30.0776 -38.585,88.515 -65.764,-28.511 -28.5917,65.565 L 49.3361,127.1356 0.5913,238.9206 0,238.9106 0.13325073,147.17397 30.74978,80.0946 96.511,108.6086 125.1021,43.0417 190.8671,71.5556 215.1561,15.821 208.5821,12.9672 241.6061,0 l 13.009,32.9274 z"
     fill="#ff8548"
     id="path24"
     sodipodi:nodetypes="ccccccccccccccccc" />
  <path
     fill-rule="evenodd"
     clip-rule="evenodd"
     d="m 242.4481,72.8996 c 0.141,-0.29 0.257,-0.591 0.342,-0.901 0.331,-1.202 0.309,-2.487 -0.056,-3.679 -0.362,-1.179 -1.055,-2.251 -1.988,-3.065 -0.525,-0.457 -1.121,-0.83 -1.761,-1.107 -3.401,-1.466 -7.356,0.078 -8.835,3.45 -2.66,6.069 1.341,13.645 1.341,13.645 1.641,-0.64 3.644,-2.669 4.657,-5.186 0.265,0.987 0.563,1.629 0.563,1.629 -0.032,-0.066 0.204,-0.374 0.246,-0.433 0.095,-0.133 0.205,-0.256 0.324,-0.368 0.239,-0.222 0.518,-0.398 0.807,-0.548 0.735,-0.383 1.53,-0.623 2.234,-1.072 0.9,-0.573 1.657,-1.404 2.126,-2.365 z"
     fill="#fec600"
     id="path26" />
  <path
     fill-rule="evenodd"
     clip-rule="evenodd"
     d="m 240.9471,67.9416 c 0.071,-0.15 0.129,-0.305 0.171,-0.466 0.166,-0.62 0.156,-1.283 -0.027,-1.898 -0.18,-0.609 -0.526,-1.162 -0.993,-1.582 -0.262,-0.236 -0.56,-0.428 -0.88,-0.57 -1.7,-0.757 -3.678,0.041 -4.418,1.783 -1.332,3.133 0.666,7.042 0.666,7.042 0.821,-0.332 1.823,-1.379 2.33,-2.678 0.132,0.509 0.282,0.841 0.282,0.841 l 0.122,-0.224 c 0.048,-0.069 0.102,-0.132 0.162,-0.19 0.12,-0.115 0.259,-0.205 0.404,-0.283 0.368,-0.198 0.765,-0.322 1.118,-0.554 0.45,-0.296 0.828,-0.725 1.063,-1.221 z"
     fill="#e2362f"
     id="path28" />
  <path
     fill-rule="evenodd"
     clip-rule="evenodd"
     d="m 243.9061,66.8056 -9.977,-4.239 9.389,-21.0953 c 1.196,-2.6888 4.399,-3.9193 7.154,-2.7491 2.755,1.1702 4.018,4.2985 2.822,6.9874 z"
     fill="#15cab8"
     id="path30" />
  <path
     opacity="0.429408"
     fill-rule="evenodd"
     clip-rule="evenodd"
     d="m 248.7241,38.324 c 1.648,1.5115 2.238,3.9466 1.289,6.1009 l -7.993,18.1477 3.345,1.436 7.992,-18.1479 c 1.203,-2.7321 -0.068,-5.9144 -2.836,-7.1028 -0.586,-0.2515 -1.191,-0.3934 -1.797,-0.4339 z"
     fill="#d3ffe3"
     id="path32" />
  <path
     fill-rule="evenodd"
     clip-rule="evenodd"
     d="m 187.5141,48.9706 c 0.117,-0.3 0.259,-0.5899 0.429,-0.8631 0.657,-1.0594 1.614,-1.9206 2.736,-2.4682 1.11,-0.5415 2.365,-0.7703 3.596,-0.6485 0.69,0.0682 1.369,0.2457 2.005,0.5217 3.382,1.4661 4.932,5.3881 3.461,8.7601 -2.646,6.07 -10.915,8.335 -10.915,8.335 -0.643,-1.627 -0.514,-4.464 0.645,-6.915 -0.903,0.481 -1.577,0.703 -1.577,0.703 0.071,-0.022 0.137,-0.403 0.152,-0.474 0.033,-0.16 0.049,-0.322 0.049,-0.486 0.001,-0.324 -0.059,-0.647 -0.145,-0.959 -0.217,-0.794 -0.58,-1.534 -0.729,-2.352 -0.19,-1.042 -0.093,-2.159 0.293,-3.154 z"
     fill="#fec600"
     id="path34" />
  <path
     fill-rule="evenodd"
     clip-rule="evenodd"
     d="m 192.4121,46.5814 c 0.061,-0.1547 0.136,-0.3038 0.224,-0.4452 0.343,-0.5466 0.842,-0.9911 1.427,-1.2736 0.579,-0.2797 1.234,-0.3971 1.876,-0.3343 0.361,0.0355 0.714,0.1272 1.046,0.2694 1.765,0.7574 2.574,2.7819 1.807,4.5219 -1.38,3.133 -5.694,4.301 -5.694,4.301 -0.336,-0.84 -0.269,-2.304 0.335,-3.569 -0.471,0.248 -0.822,0.363 -0.822,0.363 l 0.079,-0.245 c 0.017,-0.083 0.026,-0.167 0.026,-0.25 10e-4,-0.168 -0.031,-0.335 -0.076,-0.496 -0.113,-0.41 -0.303,-0.792 -0.381,-1.2138 -0.098,-0.538 -0.049,-1.1144 0.153,-1.6284 z"
     fill="#e2362f"
     id="path36" />
  <path
     fill-rule="evenodd"
     clip-rule="evenodd"
     d="m 191.2131,44.0499 9.976,4.2387 9.388,-21.0955 c 1.197,-2.6889 -0.067,-5.8172 -2.822,-6.9873 -2.755,-1.1708 -5.958,0.0602 -7.155,2.7491 z"
     fill="#15cab8"
     id="path38" />
  <path
     opacity="0.429408"
     fill-rule="evenodd"
     clip-rule="evenodd"
     d="m 205.4441,19.9165 c 1.648,1.5115 2.238,3.9466 1.289,6.1009 l -7.992,18.1482 3.344,1.4351 7.992,-18.1476 c 1.204,-2.732 -0.067,-5.9143 -2.836,-7.1028 -0.585,-0.2515 -1.191,-0.3933 -1.797,-0.4338 z"
     fill="#d3ffe3"
     id="path40" />
  <path
     fill-rule="evenodd"
     clip-rule="evenodd"
     d="m 245.3991,63.9806 -9.997,-4.295 -1.448,3.291 9.996,4.295 z"
     fill="#44a6e9"
     id="path42" />
  <path
     fill-rule="evenodd"
     clip-rule="evenodd"
     d="m 192.6851,41.1694 9.997,4.2949 -1.448,3.2913 -9.997,-4.2956 z"
     fill="#44a6e9"
     id="path44" />
  <path
     fill-rule="evenodd"
     clip-rule="evenodd"
     d="m 241.7611,62.4776 -1.399,3.212 3.216,1.396 1.401,-3.213 z"
     fill="#3488c2"
     id="path46" />
  <path
     fill-rule="evenodd"
     clip-rule="evenodd"
     d="m 199.0551,43.9755 -1.4,3.2123 3.217,1.3958 1.4,-3.213 z"
     fill="#3488c2"
     id="path48" />
</svg>
